<?xml version="1.0" encoding="utf-8"?>
<!-- Generator: Adobe Illustrator 21.1.0, SVG Export Plug-In . SVG Version: 6.00 Build 0)  -->
<svg version="1.1" id="Layer_1" xmlns="http://www.w3.org/2000/svg" xmlns:xlink="http://www.w3.org/1999/xlink" x="0px" y="0px"
	 viewBox="0 0 419.3 40.1" enable-background="new 0 0 419.3 40.1" xml:space="preserve">
<g>
	<path fill="#45403E" d="M38.5,2.2v37h-4.7v-6.4c-2,2.4-4.2,4.2-6.7,5.5c-2.5,1.2-5.2,1.8-8.1,1.8c-5.2,0-9.7-1.9-13.4-5.7
		C1.9,30.7,0,26,0,20.6c0-5.3,1.9-9.9,5.6-13.7s8.2-5.7,13.5-5.7c3,0,5.8,0.6,8.2,1.9C29.8,4.5,32,6.4,33.8,9V2.2H38.5z M19.5,5.9
		c-2.6,0-5.1,0.7-7.3,2c-2.2,1.3-4,3.1-5.3,5.5c-1.3,2.4-2,4.8-2,7.5c0,2.6,0.7,5.1,2,7.5c1.3,2.4,3.1,4.2,5.4,5.6
		c2.3,1.3,4.7,2,7.2,2c2.6,0,5.1-0.7,7.4-2c2.3-1.3,4.1-3.1,5.4-5.3c1.3-2.2,1.9-4.8,1.9-7.6c0-4.3-1.4-7.9-4.2-10.7
		C27.1,7.3,23.6,5.9,19.5,5.9"/>
	<polygon fill="#45403E" points="45,2.2 50.7,2.2 60.5,15.7 70.3,2.2 76,2.2 63.4,19.7 77.6,39.2 71.8,39.2 60.5,23.7 49.3,39.2 
		43.7,39.2 57.7,19.7 	"/>
	<path fill="#CEA428" d="M178.5,1h7.6c4.2,0,7.1,0.2,8.6,0.5c2.3,0.5,4.1,1.6,5.5,3.3c1.4,1.7,2.1,3.8,2.1,6.3
		c0,2.1-0.5,3.9-1.5,5.5c-1,1.6-2.4,2.8-4.2,3.6c-1.8,0.8-4.3,1.2-7.5,1.2L203,39.2h-4.7l-13.7-17.7h-2.2v17.7h-3.8V1z M182.3,4.7
		v13l6.6,0.1c2.5,0,4.4-0.2,5.7-0.7c1.2-0.5,2.2-1.3,2.9-2.3c0.7-1.1,1-2.3,1-3.6c0-1.3-0.3-2.4-1-3.5c-0.7-1-1.6-1.8-2.7-2.2
		c-1.1-0.5-3-0.7-5.6-0.7H182.3z"/>
	<polygon fill="#CEA428" points="210.6,1 232.6,1 232.6,4.7 214.5,4.7 214.5,16.7 232.4,16.7 232.4,20.4 214.5,20.4 214.5,35.4 
		232.4,35.4 232.4,39.2 210.6,39.2 	"/>
	<path fill="#CEA428" d="M276,7.4l-3,2.8c-2.1-2.1-4.5-3.7-7-4.8c-2.5-1.1-5-1.6-7.4-1.6c-3,0-5.9,0.7-8.6,2.2
		c-2.7,1.5-4.8,3.5-6.3,6c-1.5,2.5-2.2,5.2-2.2,8c0,2.9,0.8,5.6,2.3,8.2c1.5,2.6,3.7,4.6,6.4,6.1c2.7,1.5,5.7,2.2,8.9,2.2
		c3.9,0,7.3-1.1,10-3.3c2.7-2.2,4.3-5.1,4.8-8.6h-12.2v-3.7h16.5c0,5.9-1.8,10.6-5.3,14.1c-3.5,3.5-8.1,5.2-13.9,5.2
		c-7.1,0-12.7-2.4-16.8-7.2c-3.2-3.7-4.8-8-4.8-12.9c0-3.6,0.9-7,2.7-10.1s4.3-5.6,7.5-7.3c3.2-1.8,6.8-2.6,10.8-2.6
		c3.2,0,6.3,0.6,9.1,1.8C270.5,2.9,273.3,4.8,276,7.4"/>
	<rect x="285" y="1" fill="#CEA428" width="3.8" height="38.2"/>
	<path fill="#CEA428" d="M293.6,32.1l3.2-1.9c2.3,4.2,4.9,6.3,7.9,6.3c1.3,0,2.5-0.3,3.6-0.9c1.1-0.6,2-1.4,2.6-2.4
		c0.6-1,0.9-2.1,0.9-3.2c0-1.3-0.4-2.5-1.3-3.8c-1.2-1.7-3.4-3.7-6.5-6.1c-3.2-2.4-5.2-4.1-6-5.2c-1.4-1.8-2-3.8-2-5.8
		c0-1.7,0.4-3.2,1.2-4.5c0.8-1.4,1.9-2.4,3.4-3.2c1.4-0.8,3-1.2,4.7-1.2c1.8,0,3.5,0.4,5.1,1.3c1.6,0.9,3.2,2.5,5,4.9l-3.1,2.4
		c-1.4-1.9-2.7-3.2-3.7-3.8c-1-0.6-2.1-0.9-3.3-0.9c-1.5,0-2.8,0.5-3.8,1.4c-1,0.9-1.5,2.1-1.5,3.5c0,0.8,0.2,1.6,0.5,2.4
		c0.3,0.8,1,1.6,1.9,2.5c0.5,0.5,2.1,1.8,4.9,3.8c3.3,2.4,5.6,4.6,6.8,6.5c1.2,1.9,1.8,3.8,1.8,5.7c0,2.8-1.1,5.2-3.2,7.2
		c-2.1,2-4.7,3.1-7.7,3.1c-2.3,0-4.4-0.6-6.3-1.9C297,37.1,295.2,35,293.6,32.1"/>
	<polygon fill="#CEA428" points="320.3,4.7 320.3,1 341.3,1 341.3,4.7 332.7,4.7 332.7,39.2 328.8,39.2 328.8,4.7 	"/>
	<path fill="#CEA428" d="M347,1h7.6c4.2,0,7.1,0.2,8.6,0.5c2.3,0.5,4.1,1.6,5.5,3.3c1.4,1.7,2.1,3.8,2.1,6.3c0,2.1-0.5,3.9-1.5,5.5
		c-1,1.6-2.4,2.8-4.2,3.6c-1.8,0.8-4.3,1.2-7.5,1.2l13.7,17.7h-4.7l-13.7-17.7h-2.2v17.7H347V1z M350.8,4.7v13l6.6,0.1
		c2.5,0,4.4-0.2,5.7-0.7c1.2-0.5,2.2-1.3,2.9-2.3c0.7-1.1,1-2.3,1-3.6c0-1.3-0.3-2.4-1-3.5c-0.7-1-1.6-1.8-2.7-2.2
		c-1.1-0.5-3-0.7-5.6-0.7H350.8z"/>
	<polygon fill="#CEA428" points="375,1 379.4,1 389.2,16.7 398.8,1 403.2,1 391.1,20.9 391.1,39.2 387.3,39.2 387.3,20.9 	"/>
	<path fill-rule="evenodd" clip-rule="evenodd" fill="#CEA428" d="M119.4,21.7c0-0.3,0-0.6,0-0.8c0-0.3,0-0.5,0-0.8
		c-6.4-0.3-9.5-0.8-10.2-1.6c-0.4-0.4-0.3-0.8,1.4-1.6c0.2-0.1,0.3-0.3,0.2-0.5c-0.1-0.2-0.3-0.2-0.5-0.1c-1.5,0.5-2.4,0.9-2.8,0.4
		c-0.5-0.7,0.6-2.6,2.5-4.9c2-2.3,3.4-3.7,3.5-3.8c0.1-0.2,0.2-0.4,0-0.5c-0.1-0.1-0.3-0.1-0.5,0c-0.2,0.1-1.5,1.6-3.8,3.5
		c-2.3,2-4.2,3-4.9,2.5c-0.5-0.4-0.2-1.3,0.4-2.8c0.1-0.2,0.1-0.4-0.1-0.5c-0.2-0.1-0.4,0-0.5,0.2c-0.8,1.6-1.1,1.8-1.6,1.4
		c-1.2-1.2-1.7-6.5-1.9-10.5c-0.2,0-0.3,0-0.5,0c-0.2,0-0.4,0-0.5,0c-0.2,4-0.7,9.3-1.9,10.5c-0.4,0.4-0.8,0.3-1.6-1.4
		c-0.1-0.2-0.3-0.3-0.5-0.2c-0.2,0.1-0.2,0.3-0.1,0.5c0.5,1.5,0.9,2.4,0.4,2.8c-0.7,0.5-2.6-0.6-4.9-2.5c-2.3-2-3.7-3.4-3.8-3.5
		c-0.2-0.1-0.4-0.2-0.5,0c-0.1,0.1-0.1,0.3,0,0.5c0.1,0.2,1.6,1.5,3.5,3.8c2,2.3,3,4.2,2.5,4.9c-0.4,0.5-1.3,0.2-2.8-0.4
		c-0.2-0.1-0.4,0-0.5,0.1c-0.1,0.2,0,0.4,0.2,0.5c1.6,0.8,1.8,1.1,1.4,1.6c-1.2,1.2-6.2,1.7-10.2,1.9c0,0.2,0,0.3,0,0.5
		c0,0.2,0,0.4,0,0.6c4,0.2,9,0.7,10.2,1.9c0.4,0.4,0.3,0.8-1.4,1.6c-0.2,0.1-0.3,0.3-0.2,0.5c0.1,0.2,0.3,0.2,0.5,0.1
		c1.5-0.5,2.4-0.9,2.8-0.4c0.5,0.7-0.6,2.6-2.5,4.9c-1.9,2.3-3.4,3.7-3.5,3.8c-0.1,0.2-0.2,0.4,0,0.5c0.1,0.1,0.3,0.1,0.5,0
		c0.2-0.1,1.5-1.5,3.8-3.5c2.3-1.9,4.2-3,4.9-2.5c0.5,0.4,0.2,1.3-0.4,2.8c-0.1,0.2-0.1,0.4,0.1,0.5c0.2,0.1,0.4,0,0.5-0.2
		c0.8-1.6,1.1-1.8,1.6-1.4c1.2,1.2,1.7,6.2,1.9,10.2c0.2,0,0.4,0,0.6,0c0.2,0,0.3,0,0.5,0c0.2-4,0.7-9,1.9-10.2
		c0.4-0.4,0.8-0.3,1.6,1.4c0.1,0.2,0.3,0.3,0.5,0.2c0.2-0.1,0.2-0.3,0.1-0.5c-0.5-1.5-0.9-2.4-0.4-2.8c0.7-0.5,2.6,0.6,4.9,2.5
		c2.3,2,3.7,3.4,3.8,3.5c0.2,0.1,0.4,0.2,0.5,0c0.1-0.1,0.1-0.3,0-0.5c-0.1-0.2-1.6-1.5-3.5-3.8c-2-2.3-3-4.2-2.5-4.9
		c0.4-0.5,1.3-0.2,2.8,0.4c0.2,0.1,0.4,0.1,0.5-0.1c0.1-0.2,0-0.4-0.2-0.5c-1.6-0.8-1.8-1.1-1.4-1.6C110,22.5,113,22,119.4,21.7
		 M100.1,24.1c-1.8,0-3.3-1.5-3.3-3.3c0-1.8,1.5-3.3,3.3-3.3c1.8,0,3.3,1.5,3.3,3.3C103.3,22.6,101.9,24.1,100.1,24.1"/>
	<path fill="#45403E" d="M91,18.4c0.4-0.4,0.3-0.8-1.4-1.6c-0.2-0.1-0.3-0.3-0.2-0.5c0.1-0.2,0.3-0.2,0.5-0.1
		c1.5,0.5,2.4,0.9,2.8,0.4c0.5-0.7-0.6-2.6-2.5-4.9c-2-2.3-3.4-3.7-3.5-3.8c-0.1-0.2-0.2-0.4,0-0.5c0.1-0.1,0.3-0.1,0.5,0
		c0.2,0.1,1.5,1.6,3.8,3.5c2.3,2,4.2,3,4.9,2.5c0.5-0.4,0.2-1.3-0.4-2.8c-0.1-0.2-0.1-0.4,0.1-0.5c0.2-0.1,0.4,0,0.5,0.2
		c0.8,1.6,1.1,1.8,1.6,1.4c1.2-1.2,1.7-6.5,1.9-10.5c-5.5,0.1-10,2.2-13.7,6.2c-3.3,3.6-5,7.9-5.1,12.8C84.8,20.1,89.8,19.6,91,18.4
		"/>
	<path fill="#45403E" d="M103.3,20.8c0-1.8-1.5-3.3-3.3-3.3c-1.8,0-3.3,1.5-3.3,3.3c0,1.8,1.5,3.3,3.3,3.3
		C101.9,24.1,103.3,22.6,103.3,20.8"/>
	<path fill="#45403E" d="M102.5,11.8c0.4,0.4,0.8,0.3,1.6-1.4c0.1-0.2,0.3-0.3,0.5-0.2c0.2,0.1,0.2,0.3,0.1,0.5
		c-0.5,1.5-0.9,2.4-0.4,2.8c0.7,0.5,2.6-0.6,4.9-2.5c2.3-2,3.7-3.4,3.8-3.5c0.2-0.1,0.4-0.2,0.5,0c0.1,0.1,0.1,0.3,0,0.5
		c-0.1,0.2-1.6,1.5-3.5,3.8c-1.9,2.3-3,4.2-2.5,4.9c0.4,0.5,1.3,0.2,2.8-0.4c0.2-0.1,0.4-0.1,0.5,0.1c0.1,0.2,0,0.4-0.2,0.5
		c-1.6,0.8-1.8,1.1-1.4,1.6c0.7,0.7,3.8,1.3,10.2,1.6c-0.2-4.8-1.9-9-5.1-12.6c-3.6-4-8.2-6.1-13.7-6.2
		C100.8,5.3,101.3,10.6,102.5,11.8"/>
	<path fill="#45403E" d="M97.7,29.9c-0.4-0.4-0.8-0.3-1.6,1.4c-0.1,0.2-0.3,0.3-0.5,0.2c-0.2-0.1-0.2-0.3-0.1-0.5
		c0.5-1.5,0.9-2.4,0.4-2.8c-0.7-0.5-2.6,0.6-4.9,2.5c-2.3,2-3.7,3.4-3.8,3.5c-0.2,0.1-0.4,0.2-0.5,0c-0.1-0.1-0.1-0.3,0-0.5
		c0.1-0.2,1.6-1.5,3.5-3.8c2-2.3,3-4.2,2.5-4.9c-0.4-0.5-1.3-0.2-2.8,0.4c-0.2,0.1-0.4,0.1-0.5-0.1c-0.1-0.2,0-0.4,0.2-0.5
		c1.6-0.8,1.8-1.1,1.4-1.6c-1.2-1.2-6.2-1.7-10.2-1.9c0.1,4.9,1.9,9.2,5.4,13c3.5,3.7,7.9,5.7,13.3,5.8
		C99.3,36.2,98.9,31.1,97.7,29.9"/>
	<path fill="#45403E" d="M109.2,23.3c-0.4,0.4-0.3,0.8,1.4,1.6c0.2,0.1,0.3,0.3,0.2,0.5c-0.1,0.2-0.3,0.2-0.5,0.1
		c-1.5-0.5-2.4-0.9-2.8-0.4c-0.5,0.7,0.6,2.6,2.5,4.9c2,2.3,3.4,3.7,3.5,3.8c0.1,0.2,0.2,0.4,0,0.5c-0.1,0.1-0.3,0.1-0.5,0
		c-0.2-0.1-1.5-1.5-3.8-3.5c-2.3-1.9-4.2-3-4.9-2.5c-0.5,0.4-0.2,1.3,0.4,2.8c0.1,0.2,0.1,0.4-0.1,0.5c-0.2,0.1-0.4,0-0.5-0.2
		c-0.8-1.6-1.1-1.8-1.6-1.4c-1.2,1.2-1.7,6.2-1.9,10.2c5.4-0.1,9.9-2,13.4-5.8c3.4-3.6,5.2-7.9,5.4-12.7C113,22,110,22.5,109.2,23.3
		"/>
	<path fill-rule="evenodd" clip-rule="evenodd" fill="#CEA428" d="M160.4,20.5c-1.3,0-3,0-4.8,0c0,0.2,0,0.4,0,0.7
		c1.7,0,3.4,0,4.8,0V20.5z"/>
	<path fill-rule="evenodd" clip-rule="evenodd" fill="#CEA428" d="M133,20.4c-1.7,0-3.4-0.1-4.9-0.1v1c1.5,0,3.1-0.1,4.8-0.1
		C133,21,133,20.7,133,20.4"/>
	<path fill="#45403E" d="M133,20.4c0.1-2.1,0.3-3.8,0.6-4.8c0.7-2.8,2.2-5.2,4.5-7.1c2.3-1.9,4.9-2.9,7.7-2.9c2.5,0,4.6,0.6,6.1,1.9
		c1.6,1.2,2.6,3.1,3.2,5.5c0.3,1.3,0.5,3.8,0.5,7.5c1.7,0,3.4,0,4.8,0v-0.4c0-5-0.5-8.7-1.5-11.1c-1-2.4-2.6-4.3-4.7-5.7
		c-2.1-1.4-4.6-2.1-7.4-2.1c-2.7,0-5.2,0.6-7.5,1.9c-2.3,1.3-4.4,3.2-6.3,5.7V2.2h-4.8v18.1C129.7,20.4,131.3,20.4,133,20.4"/>
	<path fill="#45403E" d="M128.2,21.4v17.8h4.8V25.6c0-1.6,0-3.1,0.1-4.3C131.3,21.3,129.7,21.3,128.2,21.4"/>
	<path fill="#45403E" d="M155.7,21.2c0,0.1,0,0.3,0,0.4v17.6h4.8v-18C159.1,21.2,157.4,21.2,155.7,21.2"/>
	<path fill="#45403E" d="M419.3,6.3c0,3-2.3,5.3-5.4,5.3c-3,0-5.4-2.3-5.4-5.3c0-2.9,2.4-5.3,5.4-5.3C416.9,1,419.3,3.3,419.3,6.3
		 M409.8,6.3c0,2.3,1.7,4.2,4.1,4.2c2.3,0,4-1.9,4-4.2c0-2.3-1.7-4.2-4-4.2S409.8,4,409.8,6.3 M413,9h-1.2V3.8
		c0.5-0.1,1.2-0.2,2-0.2c1,0,1.4,0.2,1.8,0.4c0.3,0.2,0.5,0.6,0.5,1.2c0,0.6-0.5,1-1.1,1.2v0.1c0.5,0.2,0.8,0.6,1,1.3
		c0.2,0.8,0.3,1.1,0.4,1.3h-1.3c-0.2-0.2-0.3-0.7-0.4-1.3c-0.1-0.6-0.4-0.8-1.1-0.8H413V9z M413.1,6h0.6c0.7,0,1.2-0.2,1.2-0.8
		c0-0.5-0.4-0.8-1.1-0.8c-0.3,0-0.5,0-0.7,0.1V6z"/>
</g>
</svg>
