<svg version="1.1" id="icon-customize" xmlns="http://www.w3.org/2000/svg" xmlns:xlink="http://www.w3.org/1999/xlink" x="0px"
	 y="0px" viewBox="0 0 15 15" enable-background="new 0 0 15 15" xml:space="preserve">
<path id="icon-customize-path" fill="#006243" d="M13.6,7.5c0,0.9,0.5,1.6,1.4,2.2c-0.1,0.4-0.3,0.9-0.6,1.5
	C13.5,11,12.7,11.2,12,12c-0.7,0.7-0.9,1.5-0.6,2.4c-0.6,0.3-1.1,0.5-1.5,0.6c-0.6-1-1.4-1.4-2.3-1.4S5.7,14,5.2,15
	c-0.5-0.2-1-0.4-1.5-0.6c0.2-1,0-1.8-0.6-2.4s-1.4-0.8-2.4-0.6C0.4,10.8,0.2,10.3,0,9.8c1-0.6,1.4-1.4,1.4-2.3C1.4,6.6,1,5.9,0,5.3
	c0.2-0.6,0.4-1.1,0.6-1.5C1.5,4,2.3,3.8,3,3c0.6-0.6,0.8-1.4,0.6-2.4C4.2,0.4,4.7,0.2,5.2,0c0.6,1,1.4,1.4,2.3,1.4S9.3,1,9.8,0
	c0.5,0.2,1,0.4,1.5,0.6c-0.2,1,0,1.8,0.6,2.4c0.7,0.7,1.5,1,2.4,0.8c0.3,0.6,0.5,1.1,0.6,1.5C14,5.9,13.6,6.6,13.6,7.5z M7.5,11.3
	c1,0,1.9-0.4,2.7-1.1s1.1-1.7,1.1-2.7S11,5.6,10.2,4.8S8.5,3.7,7.5,3.7S5.6,4,4.8,4.8S3.7,6.5,3.7,7.5S4,9.4,4.8,10.2
	S6.5,11.3,7.5,11.3z"/>
</svg>
