<?xml version="1.0" encoding="utf-8"?>
<!-- Generator: Adobe Illustrator 21.1.0, SVG Export Plug-In . SVG Version: 6.00 Build 0)  -->
<svg version="1.1" id="synapse-inverted" xmlns="http://www.w3.org/2000/svg" xmlns:xlink="http://www.w3.org/1999/xlink" x="0px"
	 y="0px" viewBox="0 0 252 144" enable-background="new 0 0 252 144" xml:space="preserve">
<path id="subtitle" fill="#FFFFFF" d="M67.6,126.6c0.5-1.4,1.1-2.9,1.7-4.4c0.6-1.5,1.3-2.9,2-4.4c0.2-0.3,0.3-0.6,0.5-0.7
	c0.2-0.1,0.4-0.2,0.6-0.2c0.2,0,0.3,0,0.4,0.1c0.1,0.1,0.2,0.1,0.2,0.1c0.2,0.3,0.4,0.7,0.6,1.2c0.2,0.5,0.5,1.1,0.8,1.7
	c0.3,0.6,0.5,1.3,0.8,2c0.3,0.7,0.5,1.3,0.8,2c0.2,0.6,0.5,1.2,0.6,1.6c0.2,0.5,0.3,0.8,0.4,1H76c0-0.1-0.1-0.3-0.2-0.5
	c-0.1-0.3-0.2-0.5-0.3-0.8c-0.1-0.3-0.2-0.6-0.3-0.9c-0.1-0.3-0.2-0.5-0.3-0.6h-5.2c-0.3,0.6-0.5,1.2-0.7,1.7
	c-0.2,0.5-0.3,0.9-0.4,1.1H67.6z M72.3,117.7c-0.4,0.8-0.8,1.6-1.2,2.5c-0.4,0.9-0.8,1.8-1.1,2.7h4.6c-0.2-0.4-0.4-0.9-0.6-1.4
	c-0.2-0.5-0.4-1-0.6-1.5c-0.2-0.5-0.4-0.9-0.6-1.3C72.6,118.2,72.4,117.9,72.3,117.7 M77.7,126.6c0.5-1.4,1.1-2.9,1.7-4.4
	c0.6-1.5,1.3-2.9,2-4.4c0.2-0.3,0.3-0.6,0.5-0.7c0.2-0.1,0.4-0.2,0.6-0.2c0.2,0,0.3,0,0.4,0.1c0.1,0.1,0.2,0.1,0.2,0.1
	c0.2,0.3,0.4,0.7,0.6,1.2c0.2,0.5,0.5,1.1,0.8,1.7c0.3,0.6,0.5,1.3,0.8,2s0.5,1.3,0.8,2c0.2,0.6,0.5,1.2,0.6,1.6
	c0.2,0.5,0.3,0.8,0.4,1h-1.1c0-0.1-0.1-0.3-0.2-0.5c-0.1-0.3-0.2-0.5-0.3-0.8c-0.1-0.3-0.2-0.6-0.3-0.9s-0.2-0.5-0.3-0.6h-5.2
	c-0.3,0.6-0.5,1.2-0.7,1.7c-0.2,0.5-0.3,0.9-0.4,1.1H77.7z M82.4,117.7c-0.4,0.8-0.8,1.6-1.2,2.5c-0.4,0.9-0.8,1.8-1.1,2.7h4.6
	c-0.2-0.4-0.4-0.9-0.6-1.4c-0.2-0.5-0.4-1-0.6-1.5c-0.2-0.5-0.4-0.9-0.6-1.3C82.6,118.2,82.5,117.9,82.4,117.7 M96.1,126.6v-9.3
	c0,0-0.1-0.1-0.2-0.1c-0.1,0-0.2,0-0.3,0c-0.2,0-0.3,0-0.4,0.1c-0.1,0.1-0.1,0.2-0.1,0.4v7.6c-0.3-0.4-0.6-0.9-0.9-1.4
	c-0.3-0.5-0.7-1-1-1.5c-0.4-0.5-0.7-1-1.1-1.5c-0.4-0.5-0.7-1-1-1.4c-0.3-0.4-0.6-0.8-0.8-1.2c-0.3-0.3-0.5-0.6-0.6-0.8
	c-0.1-0.1-0.2-0.1-0.3-0.2c-0.1-0.1-0.3-0.1-0.5-0.1c-0.2,0-0.4,0.1-0.5,0.2c-0.1,0.1-0.2,0.2-0.2,0.4v8.9h0.9v-8.4
	c0.5,0.6,1,1.3,1.5,2.1c0.5,0.7,1.1,1.5,1.6,2.2c0.5,0.8,1,1.5,1.5,2.2c0.5,0.7,0.9,1.3,1.2,1.9H96.1z M111.3,121.8
	c0,0.7-0.1,1.4-0.4,2c-0.3,0.6-0.6,1.1-1,1.6c-0.4,0.4-1,0.8-1.6,1c-0.6,0.2-1.3,0.4-2,0.4c-0.7,0-1.4-0.1-2-0.4
	c-0.6-0.2-1.1-0.6-1.6-1c-0.4-0.4-0.8-1-1-1.6c-0.3-0.6-0.4-1.3-0.4-2c0-0.7,0.1-1.4,0.4-2c0.3-0.6,0.6-1.1,1-1.6
	c0.4-0.4,1-0.8,1.6-1c0.6-0.2,1.3-0.4,2-0.4c0.7,0,1.4,0.1,2,0.4c0.6,0.2,1.1,0.6,1.6,1c0.4,0.4,0.8,1,1,1.6
	C111.1,120.5,111.3,121.1,111.3,121.8 M110.3,121.8c0-0.6-0.1-1.2-0.3-1.7c-0.2-0.5-0.5-0.9-0.8-1.3c-0.4-0.4-0.8-0.6-1.3-0.8
	c-0.5-0.2-1-0.3-1.6-0.3c-0.6,0-1.1,0.1-1.6,0.3s-0.9,0.5-1.2,0.8c-0.4,0.4-0.6,0.8-0.8,1.3c-0.2,0.5-0.3,1.1-0.3,1.7
	c0,0.6,0.1,1.2,0.3,1.7s0.5,0.9,0.8,1.3c0.4,0.4,0.8,0.7,1.2,0.9s1,0.3,1.6,0.3c0.6,0,1.1-0.1,1.6-0.3c0.5-0.2,0.9-0.5,1.3-0.9
	s0.6-0.8,0.8-1.3C110.2,123,110.3,122.5,110.3,121.8 M118.9,126.6v-4.1c0-0.4-0.1-0.8-0.2-1.2c-0.1-0.4-0.4-0.7-0.6-0.9
	c-0.3-0.3-0.6-0.5-1-0.6c-0.4-0.1-0.8-0.2-1.3-0.2c-0.5,0-0.9,0.1-1.3,0.2c-0.4,0.1-0.7,0.3-1,0.6c-0.3,0.3-0.5,0.6-0.6,0.9
	s-0.2,0.8-0.2,1.2v4.1h0.9v-3.8c0-0.8,0.2-1.4,0.6-1.8c0.4-0.4,0.9-0.6,1.7-0.6c0.8,0,1.3,0.2,1.7,0.6c0.4,0.4,0.6,1,0.6,1.8v3.8
	H118.9z M120.4,126.6h0.9v-10c0,0-0.1,0-0.2-0.1c-0.1,0-0.2,0-0.2,0c-0.2,0-0.3,0-0.4,0.1c-0.1,0.1-0.1,0.2-0.1,0.3V126.6z
	 M124.1,117.4c0,0.2-0.1,0.3-0.2,0.5c-0.1,0.1-0.3,0.2-0.5,0.2c-0.2,0-0.3-0.1-0.5-0.2c-0.1-0.1-0.2-0.3-0.2-0.5
	c0-0.2,0.1-0.3,0.2-0.5c0.1-0.1,0.3-0.2,0.5-0.2c0.2,0,0.3,0.1,0.5,0.2C124,117,124.1,117.2,124.1,117.4 M122.9,120.3
	c0-0.1,0-0.2,0.1-0.3c0.1-0.1,0.2-0.1,0.4-0.1c0.1,0,0.2,0,0.2,0c0.1,0,0.1,0,0.2,0.1v6.7h-0.9V120.3z M131.7,126.6v-4.1
	c0-0.4-0.1-0.8-0.2-1.2s-0.4-0.7-0.6-0.9c-0.3-0.3-0.6-0.5-1-0.6c-0.4-0.1-0.8-0.2-1.3-0.2c-0.5,0-0.9,0.1-1.3,0.2
	c-0.4,0.1-0.7,0.3-1,0.6c-0.3,0.3-0.5,0.6-0.6,0.9c-0.1,0.4-0.2,0.8-0.2,1.2v4.1h0.9v-3.8c0-0.8,0.2-1.4,0.6-1.8
	c0.4-0.4,0.9-0.6,1.7-0.6c0.8,0,1.3,0.2,1.7,0.6c0.4,0.4,0.6,1,0.6,1.8v3.8H131.7z M133.9,123.8c0.1,0.7,0.4,1.3,0.9,1.6
	c0.5,0.4,1.1,0.6,1.9,0.6c0.5,0,0.9-0.1,1.2-0.2c0.3-0.1,0.6-0.2,0.8-0.4l0.4,0.7c-0.1,0-0.2,0.1-0.3,0.2c-0.1,0.1-0.3,0.2-0.5,0.2
	c-0.2,0.1-0.4,0.1-0.7,0.2c-0.3,0.1-0.6,0.1-0.9,0.1c-0.5,0-1-0.1-1.4-0.2c-0.4-0.2-0.8-0.4-1.2-0.7c-0.3-0.3-0.6-0.7-0.8-1.1
	c-0.2-0.4-0.3-0.9-0.3-1.5c0-0.6,0.1-1.1,0.3-1.5c0.2-0.5,0.4-0.8,0.8-1.2c0.3-0.3,0.7-0.6,1.2-0.8c0.5-0.2,1-0.3,1.5-0.3
	c0.5,0,0.9,0.1,1.2,0.2c0.3,0.1,0.6,0.3,0.9,0.4c0.2,0.2,0.4,0.4,0.5,0.7c0.1,0.3,0.2,0.5,0.2,0.8c0,0.3-0.1,0.6-0.2,0.8
	c-0.1,0.3-0.3,0.5-0.6,0.7c-0.3,0.2-0.7,0.3-1.2,0.4c-0.5,0.1-1.1,0.2-1.9,0.2c-0.3,0-0.6,0-0.8,0
	C134.4,123.8,134.1,123.8,133.9,123.8 M133.8,123.1c0.2,0,0.5,0,0.7,0c0.2,0,0.5,0,0.7,0c0.6,0,1.1,0,1.5-0.1c0.4-0.1,0.7-0.2,1-0.3
	c0.2-0.1,0.4-0.3,0.5-0.5c0.1-0.2,0.1-0.4,0.1-0.6c0-0.3-0.1-0.5-0.2-0.6c-0.1-0.2-0.2-0.3-0.4-0.4c-0.2-0.1-0.4-0.2-0.6-0.2
	c-0.2,0-0.5-0.1-0.7-0.1c-0.4,0-0.8,0.1-1.1,0.2c-0.3,0.2-0.6,0.4-0.8,0.6c-0.2,0.3-0.4,0.5-0.5,0.9
	C133.9,122.4,133.8,122.7,133.8,123.1 M151.7,117.6c-0.2-0.2-0.6-0.3-1-0.5c-0.5-0.2-1.1-0.2-1.7-0.2c-0.7,0-1.3,0.1-1.9,0.3
	c-0.6,0.2-1.1,0.6-1.6,1c-0.4,0.4-0.8,1-1.1,1.6c-0.3,0.6-0.4,1.3-0.4,2.1c0,0.8,0.1,1.5,0.4,2.1c0.3,0.6,0.6,1.1,1.1,1.5
	c0.5,0.4,1,0.7,1.6,1c0.6,0.2,1.2,0.3,1.9,0.3c0.4,0,0.8,0,1.2-0.1c0.3-0.1,0.6-0.1,0.9-0.2c0.3-0.1,0.5-0.2,0.6-0.3
	c0.2-0.1,0.3-0.2,0.4-0.2l-0.4-0.7c-0.1,0.1-0.2,0.1-0.4,0.2c-0.2,0.1-0.4,0.2-0.6,0.2c-0.2,0.1-0.5,0.1-0.8,0.2
	c-0.3,0-0.6,0.1-0.9,0.1c-0.5,0-1.1-0.1-1.6-0.3c-0.5-0.2-0.9-0.4-1.3-0.8c-0.4-0.3-0.7-0.8-0.9-1.3c-0.2-0.5-0.3-1.1-0.3-1.8
	c0-0.6,0.1-1.2,0.3-1.7c0.2-0.5,0.5-0.9,0.8-1.3c0.3-0.4,0.8-0.6,1.2-0.8c0.5-0.2,1-0.3,1.5-0.3c0.3,0,0.6,0,0.9,0.1
	c0.3,0.1,0.6,0.1,0.8,0.2c0.2,0.1,0.4,0.2,0.6,0.3c0.2,0.1,0.3,0.2,0.4,0.3c0.1,0,0.2-0.1,0.3-0.2c0.1-0.1,0.1-0.2,0.1-0.4
	c0-0.1,0-0.2-0.1-0.3C151.9,117.8,151.8,117.7,151.7,117.6 M159.8,123.2c0,0.5-0.1,1-0.3,1.4c-0.2,0.4-0.4,0.8-0.8,1.1
	c-0.3,0.3-0.7,0.6-1.2,0.8c-0.4,0.2-0.9,0.3-1.5,0.3s-1-0.1-1.5-0.3c-0.4-0.2-0.8-0.4-1.2-0.8c-0.3-0.3-0.6-0.7-0.8-1.1
	c-0.2-0.4-0.3-0.9-0.3-1.4c0-0.5,0.1-1,0.3-1.4c0.2-0.4,0.4-0.8,0.8-1.1c0.3-0.3,0.7-0.6,1.2-0.8c0.4-0.2,0.9-0.3,1.5-0.3
	s1,0.1,1.5,0.3c0.4,0.2,0.8,0.4,1.2,0.8c0.3,0.3,0.6,0.7,0.8,1.1C159.7,122.2,159.8,122.7,159.8,123.2 M158.8,123.2
	c0-0.4-0.1-0.8-0.2-1.1c-0.1-0.3-0.3-0.6-0.6-0.9c-0.2-0.3-0.5-0.5-0.9-0.6s-0.7-0.2-1.1-0.2c-0.4,0-0.8,0.1-1.1,0.2
	c-0.3,0.1-0.6,0.3-0.9,0.6c-0.2,0.3-0.4,0.6-0.6,0.9c-0.1,0.3-0.2,0.7-0.2,1.1c0,0.4,0.1,0.8,0.2,1.1c0.1,0.3,0.3,0.6,0.5,0.9
	c0.2,0.3,0.5,0.5,0.8,0.6c0.3,0.1,0.7,0.2,1.1,0.2c0.4,0,0.8-0.1,1.1-0.2s0.6-0.3,0.9-0.6c0.2-0.3,0.4-0.6,0.6-0.9
	C158.8,123.9,158.8,123.6,158.8,123.2 M172.1,126.6v-4.4c0-0.4-0.1-0.8-0.2-1.1s-0.3-0.6-0.6-0.8c-0.3-0.2-0.6-0.4-0.9-0.5
	c-0.3-0.1-0.7-0.2-1.1-0.2c-0.6,0-1.1,0.1-1.5,0.4c-0.5,0.2-0.8,0.6-1.1,1.1c-0.3-0.5-0.6-0.9-1.1-1.1c-0.5-0.2-1-0.4-1.6-0.4
	c-0.4,0-0.8,0.1-1.1,0.2c-0.4,0.1-0.7,0.3-0.9,0.5c-0.3,0.2-0.5,0.5-0.6,0.8c-0.1,0.3-0.2,0.7-0.2,1.1v4.4h0.9v-3.9
	c0-0.4,0.1-0.7,0.2-1c0.1-0.3,0.2-0.5,0.4-0.7c0.2-0.2,0.4-0.3,0.7-0.4c0.3-0.1,0.5-0.1,0.8-0.1c0.3,0,0.6,0,0.8,0.1
	c0.3,0.1,0.5,0.2,0.7,0.4c0.2,0.2,0.3,0.4,0.4,0.7c0.1,0.3,0.2,0.7,0.2,1.1v3.9h0.9v-3.9c0-0.4,0.1-0.8,0.2-1.1
	c0.1-0.3,0.3-0.5,0.5-0.7c0.2-0.2,0.4-0.3,0.7-0.4c0.3-0.1,0.5-0.1,0.8-0.1c0.6,0,1.1,0.2,1.5,0.5c0.4,0.3,0.6,0.9,0.6,1.7v4H172.1z
	 M184.6,126.6v-4.4c0-0.4-0.1-0.8-0.2-1.1c-0.1-0.3-0.3-0.6-0.6-0.8c-0.3-0.2-0.6-0.4-0.9-0.5c-0.3-0.1-0.7-0.2-1.1-0.2
	c-0.6,0-1.1,0.1-1.5,0.4c-0.5,0.2-0.8,0.6-1.1,1.1c-0.3-0.5-0.6-0.9-1.1-1.1c-0.5-0.2-1-0.4-1.6-0.4c-0.4,0-0.8,0.1-1.1,0.2
	c-0.4,0.1-0.7,0.3-0.9,0.5c-0.3,0.2-0.5,0.5-0.6,0.8c-0.1,0.3-0.2,0.7-0.2,1.1v4.4h0.9v-3.9c0-0.4,0.1-0.7,0.2-1
	c0.1-0.3,0.2-0.5,0.4-0.7c0.2-0.2,0.4-0.3,0.7-0.4c0.3-0.1,0.5-0.1,0.8-0.1c0.3,0,0.6,0,0.8,0.1c0.3,0.1,0.5,0.2,0.7,0.4
	c0.2,0.2,0.3,0.4,0.4,0.7c0.1,0.3,0.2,0.7,0.2,1.1v3.9h0.9v-3.9c0-0.4,0.1-0.8,0.2-1.1c0.1-0.3,0.3-0.5,0.5-0.7
	c0.2-0.2,0.4-0.3,0.7-0.4c0.3-0.1,0.5-0.1,0.8-0.1c0.6,0,1.1,0.2,1.5,0.5c0.4,0.3,0.6,0.9,0.6,1.7v4H184.6z M191.3,123.6
	c0,0.8-0.2,1.4-0.6,1.8s-1,0.6-1.7,0.6c-0.8,0-1.3-0.2-1.7-0.6c-0.4-0.4-0.6-1-0.6-1.8v-3.7c0,0-0.1,0-0.2-0.1c-0.1,0-0.2,0-0.2,0
	c-0.2,0-0.3,0-0.4,0.1c-0.1,0.1-0.1,0.2-0.1,0.3v3.6c0,0.4,0.1,0.8,0.2,1.2c0.1,0.4,0.4,0.7,0.6,0.9c0.3,0.3,0.6,0.5,1,0.6
	c0.4,0.1,0.8,0.2,1.3,0.2c0.5,0,0.9-0.1,1.3-0.2c0.4-0.1,0.7-0.3,1-0.6s0.5-0.6,0.6-0.9s0.2-0.8,0.2-1.2v-4c0,0-0.1,0-0.2-0.1
	c-0.1,0-0.2,0-0.2,0c-0.2,0-0.3,0-0.4,0.1c-0.1,0.1-0.1,0.2-0.1,0.3V123.6z M199.8,126.6v-4.1c0-0.4-0.1-0.8-0.2-1.2
	c-0.1-0.4-0.4-0.7-0.6-0.9c-0.3-0.3-0.6-0.5-1-0.6c-0.4-0.1-0.8-0.2-1.3-0.2c-0.5,0-0.9,0.1-1.3,0.2c-0.4,0.1-0.7,0.3-1,0.6
	c-0.3,0.3-0.5,0.6-0.6,0.9s-0.2,0.8-0.2,1.2v4.1h0.9v-3.8c0-0.8,0.2-1.4,0.6-1.8c0.4-0.4,0.9-0.6,1.7-0.6c0.8,0,1.3,0.2,1.7,0.6
	c0.4,0.4,0.6,1,0.6,1.8v3.8H199.8z M202.1,117.4c0,0.2-0.1,0.3-0.2,0.5c-0.1,0.1-0.3,0.2-0.5,0.2c-0.2,0-0.3-0.1-0.5-0.2
	c-0.1-0.1-0.2-0.3-0.2-0.5c0-0.2,0.1-0.3,0.2-0.5c0.1-0.1,0.3-0.2,0.5-0.2c0.2,0,0.3,0.1,0.5,0.2C202,117,202.1,117.2,202.1,117.4
	 M201,120.3c0-0.1,0-0.2,0.1-0.3c0.1-0.1,0.2-0.1,0.4-0.1c0.1,0,0.2,0,0.2,0c0.1,0,0.1,0,0.2,0.1v6.7H201V120.3z M206.9,120.6
	c0,0,0-0.1,0.1-0.2s0-0.1,0-0.2c0-0.1,0-0.2-0.1-0.3c-0.1-0.1-0.2-0.1-0.4-0.1h-2.4V118c0,0-0.1,0-0.2-0.1c-0.1,0-0.2,0-0.2,0
	c-0.2,0-0.3,0-0.4,0.1c-0.1,0.1-0.1,0.2-0.1,0.3v6.3c0,0.3,0,0.6,0.1,0.8c0.1,0.2,0.2,0.5,0.4,0.6c0.2,0.2,0.4,0.3,0.7,0.4
	c0.3,0.1,0.6,0.2,0.9,0.2c0.3,0,0.5,0,0.7-0.1s0.4-0.1,0.6-0.2c0.2-0.1,0.3-0.1,0.4-0.2c0.1-0.1,0.2-0.1,0.3-0.2l-0.4-0.6
	c-0.1,0.1-0.3,0.2-0.6,0.3c-0.2,0.1-0.5,0.1-0.8,0.1c-0.4,0-0.8-0.1-1-0.3s-0.4-0.6-0.4-1.1v-4H206.9z M209.2,117.4
	c0,0.2-0.1,0.3-0.2,0.5c-0.1,0.1-0.3,0.2-0.5,0.2c-0.2,0-0.3-0.1-0.5-0.2c-0.1-0.1-0.2-0.3-0.2-0.5c0-0.2,0.1-0.3,0.2-0.5
	c0.1-0.1,0.3-0.2,0.5-0.2c0.2,0,0.3,0.1,0.5,0.2C209.2,117,209.2,117.2,209.2,117.4 M208.1,120.3c0-0.1,0-0.2,0.1-0.3
	c0.1-0.1,0.2-0.1,0.4-0.1c0.1,0,0.2,0,0.2,0c0.1,0,0.1,0,0.2,0.1v6.7h-0.9V120.3z M210.9,123.8c0.1,0.7,0.4,1.3,0.9,1.6
	c0.5,0.4,1.1,0.6,1.9,0.6c0.5,0,0.9-0.1,1.2-0.2c0.3-0.1,0.6-0.2,0.8-0.4l0.4,0.7c-0.1,0-0.2,0.1-0.3,0.2c-0.1,0.1-0.3,0.2-0.5,0.2
	c-0.2,0.1-0.4,0.1-0.7,0.2c-0.3,0.1-0.6,0.1-0.9,0.1c-0.5,0-1-0.1-1.4-0.2c-0.4-0.2-0.8-0.4-1.2-0.7c-0.3-0.3-0.6-0.7-0.8-1.1
	c-0.2-0.4-0.3-0.9-0.3-1.5c0-0.6,0.1-1.1,0.3-1.5c0.2-0.5,0.4-0.8,0.8-1.2c0.3-0.3,0.7-0.6,1.2-0.8c0.5-0.2,1-0.3,1.5-0.3
	c0.5,0,0.9,0.1,1.2,0.2c0.3,0.1,0.6,0.3,0.9,0.4c0.2,0.2,0.4,0.4,0.5,0.7c0.1,0.3,0.2,0.5,0.2,0.8c0,0.3-0.1,0.6-0.2,0.8
	c-0.1,0.3-0.3,0.5-0.6,0.7c-0.3,0.2-0.7,0.3-1.2,0.4c-0.5,0.1-1.1,0.2-1.9,0.2c-0.3,0-0.6,0-0.8,0
	C211.5,123.8,211.2,123.8,210.9,123.8 M210.9,123.1c0.2,0,0.5,0,0.7,0c0.2,0,0.5,0,0.7,0c0.6,0,1.1,0,1.5-0.1c0.4-0.1,0.7-0.2,1-0.3
	c0.2-0.1,0.4-0.3,0.5-0.5c0.1-0.2,0.1-0.4,0.1-0.6c0-0.3-0.1-0.5-0.2-0.6c-0.1-0.2-0.2-0.3-0.4-0.4c-0.2-0.1-0.4-0.2-0.6-0.2
	c-0.2,0-0.5-0.1-0.7-0.1c-0.4,0-0.8,0.1-1.1,0.2c-0.3,0.2-0.6,0.4-0.8,0.6c-0.2,0.3-0.4,0.5-0.5,0.9
	C211,122.4,210.9,122.7,210.9,123.1 M222.8,120.1c-0.2-0.1-0.5-0.2-0.9-0.3c-0.4-0.1-0.9-0.2-1.5-0.2c-0.6,0-1,0.1-1.4,0.2
	c-0.4,0.1-0.7,0.3-0.9,0.4c-0.2,0.2-0.4,0.4-0.5,0.6c-0.1,0.2-0.2,0.5-0.2,0.7c0,0.5,0.2,1,0.6,1.3c0.4,0.3,1,0.5,1.7,0.6l1.4,0.2
	c0.6,0.1,1.1,0.2,1.3,0.4c0.2,0.2,0.3,0.5,0.3,0.8c0,0.2-0.1,0.4-0.2,0.6c-0.1,0.1-0.3,0.3-0.5,0.4c-0.2,0.1-0.4,0.2-0.7,0.2
	c-0.3,0-0.5,0.1-0.8,0.1c-0.4,0-0.8,0-1.1-0.1c-0.3-0.1-0.6-0.1-0.9-0.2c-0.2-0.1-0.5-0.2-0.6-0.2c-0.2-0.1-0.3-0.1-0.3-0.2
	l-0.4,0.7c0,0,0.1,0.1,0.3,0.2c0.2,0.1,0.4,0.2,0.7,0.3c0.3,0.1,0.6,0.2,1,0.2c0.4,0.1,0.8,0.1,1.3,0.1c0.5,0,0.9-0.1,1.3-0.2
	c0.4-0.1,0.7-0.2,1-0.4c0.3-0.2,0.4-0.4,0.6-0.7c0.1-0.3,0.2-0.5,0.2-0.8c0-0.2,0-0.5-0.1-0.7c-0.1-0.2-0.2-0.4-0.4-0.6
	c-0.2-0.2-0.4-0.3-0.7-0.4c-0.3-0.1-0.7-0.2-1.1-0.3l-1.6-0.2c-0.5-0.1-0.8-0.2-1.1-0.3c-0.3-0.2-0.4-0.4-0.4-0.8
	c0-0.4,0.2-0.7,0.6-0.9c0.4-0.2,0.9-0.3,1.5-0.3c0.4,0,0.7,0,1,0.1c0.3,0.1,0.6,0.1,0.8,0.2c0.2,0.1,0.4,0.2,0.5,0.3
	c0.1,0.1,0.2,0.1,0.2,0.2c0.1,0,0.1-0.1,0.2-0.2c0.1-0.1,0.1-0.2,0.1-0.3C223.2,120.4,223.1,120.2,222.8,120.1"/>
<g id="bubble">
	<path id="inner" d="M213,35.8c-0.2,0-1,0-5.2-0.1l-1.4,0V17.4l-22.5,18.3h-45.7c-4.5,0-8.8,2.5-11.3,6.8l-0.9,1.5l-1-1.5
		c-2.6-4-6.7-6.5-11.1-6.5H38.6c-7.6,0-13.7,6.9-13.7,15.5v41.2c0,8.3,7.5,14.8,14.2,15.4c0.1,0,1.1,0,7.2,0.1l1.4,0v18.3l22.5-18.3
		h43.7c4.5,0,8.7-2.5,11.3-6.8l0.9-1.5l1,1.5c2.6,4,6.7,6.5,11.1,6.5h75.3c7.6,0,13.7-6.9,13.7-15.5V51.2
		C227.2,43,219.7,36.5,213,35.8"/>
	<path id="frame" fill="#B79124" d="M45.3,131.3v-20.8c-6.2,0-6.4-0.1-6.5-0.1c-7.8-0.7-16.2-8-16.2-17.6V51.6
		c0-9.8,7.2-17.7,16-17.7h75.3c4.6,0,9,2.3,12,6.1c3-4.1,7.5-6.5,12.3-6.5h44.9l25.6-20.8v20.8c3.7,0,4.4,0,4.6,0.1h0
		c7.8,0.7,16.2,8,16.2,17.6v41.2c0,9.8-7.2,17.7-16,17.7h-75.3c-4.6,0-9-2.3-12-6.1c-3,4.1-7.5,6.5-12.3,6.5H70.9L45.3,131.3z
		 M38.6,36.1c-7.6,0-13.7,6.9-13.7,15.5v41.2c0,8.3,7.5,14.8,14.2,15.4c0.1,0,1.1,0,7.2,0.1l1.4,0v18.3l22.5-18.3h43.7
		c4.5,0,8.7-2.5,11.3-6.8l0.9-1.5l1,1.5c2.6,4,6.7,6.5,11.1,6.5h75.3c7.6,0,13.7-6.9,13.7-15.5V51.2c0-8.3-7.5-14.8-14.2-15.4
		c-0.2,0-1,0-5.2-0.1l-1.4,0V17.4l-22.5,18.3h-45.7c-4.5,0-8.7,2.5-11.3,6.8l-0.9,1.5l-1-1.5c-2.6-4-6.7-6.5-11.1-6.5H38.6z"/>
</g>
<path id="title" fill="#FFFFFF" d="M38.9,78.2c0.2,0.2,0.6,0.4,1.2,0.6c0.6,0.3,1.3,0.5,2.1,0.8c0.8,0.3,1.8,0.5,2.9,0.7
	c1.1,0.2,2.2,0.3,3.5,0.3c1.6,0,3-0.2,4-0.6s1.6-1.2,1.6-2.2c0-0.9-0.3-1.6-1-2c-0.7-0.5-1.8-0.8-3.6-1L46,74.3
	c-1.3-0.1-2.4-0.4-3.5-0.7c-1.1-0.3-2-0.8-2.7-1.4C39,71.7,38.4,71,38,70.2c-0.4-0.8-0.6-1.8-0.6-3c0-1,0.2-2,0.6-2.9
	c0.4-0.9,1-1.7,1.9-2.4c0.9-0.7,2-1.2,3.3-1.6c1.4-0.4,3-0.6,5-0.6c3.3,0,5.8,0.4,7.7,1.1c1.8,0.7,2.7,1.7,2.7,2.8
	c0,0.4-0.1,0.7-0.2,1c-0.1,0.3-0.3,0.5-0.5,0.8c-0.2,0.2-0.4,0.4-0.5,0.5c-0.2,0.1-0.3,0.2-0.4,0.3c-0.1-0.1-0.4-0.3-0.8-0.6
	c-0.4-0.3-1-0.5-1.7-0.8c-0.7-0.3-1.6-0.5-2.6-0.7c-1-0.2-2.2-0.3-3.5-0.3c-3.7,0-5.5,1-5.5,2.9c0,0.8,0.3,1.4,1,1.9
	c0.7,0.4,1.7,0.7,3,0.9l4.8,0.6c2.6,0.3,4.7,1.1,6.1,2.2c1.5,1.1,2.2,2.7,2.2,4.8c0,2.4-0.9,4.3-2.8,5.7c-1.9,1.4-4.6,2.1-8.1,2.1
	c-1.7,0-3.3-0.1-4.6-0.4c-1.4-0.3-2.6-0.5-3.6-0.9s-1.9-0.7-2.5-1c-0.6-0.3-1-0.6-1.2-0.7L38.9,78.2z M62.3,74.6
	c0,1.5,0.3,2.9,0.8,4.1c0.5,1.2,1.2,2.2,2.2,3c0.9,0.8,2,1.4,3.3,1.8c1.3,0.4,2.7,0.6,4.2,0.6c1.6,0,3.1-0.3,4.4-0.8
	c1.3-0.6,2.3-1.3,3-2.2c0,1.6-0.2,3-0.5,4.1c-0.4,1.1-0.9,2-1.6,2.6c-0.7,0.7-1.5,1.1-2.5,1.4c-1,0.3-2.1,0.4-3.3,0.4
	c-0.9,0-1.8,0-2.7-0.1c-0.8-0.1-1.6-0.2-2.3-0.4c-0.7-0.1-1.2-0.3-1.7-0.5c-0.5-0.2-0.8-0.3-1-0.4c-0.2,0.7-0.4,1.3-0.7,2
	c-0.2,0.7-0.5,1.3-0.7,2c0.2,0.1,0.6,0.2,1.1,0.4c0.5,0.2,1.2,0.4,2.1,0.5c0.8,0.2,1.8,0.4,2.9,0.5c1.1,0.1,2.3,0.2,3.6,0.2
	c1.9,0,3.6-0.2,5.2-0.7c1.5-0.5,2.9-1.2,4-2.2c1.1-1,2-2.3,2.6-3.9c0.6-1.6,0.9-3.5,0.9-5.7V60.9c-0.2-0.1-0.5-0.2-1-0.3
	c-0.5-0.1-1-0.2-1.6-0.2c-0.9,0-1.6,0.2-2.1,0.6c-0.5,0.4-0.8,1-0.8,1.9V73c0,2.2-0.6,3.8-1.7,5c-1.1,1.1-2.6,1.7-4.6,1.7
	c-2.1,0-3.6-0.6-4.6-1.7c-1-1.1-1.5-2.6-1.5-4.5V60.9c-0.2-0.1-0.5-0.2-1-0.3c-0.5-0.1-1-0.2-1.6-0.2c-0.9,0-1.6,0.2-2.1,0.6
	c-0.5,0.4-0.8,1-0.8,1.9V74.6z M89.1,84.4h5.4v-13c0-2.1,0.5-3.8,1.5-4.9c1-1.1,2.6-1.7,4.6-1.7c2,0,3.6,0.6,4.6,1.7
	c1,1.1,1.6,2.8,1.6,4.9v13h5.4V70c0-1.6-0.3-3-0.9-4.2c-0.6-1.2-1.4-2.3-2.4-3.2c-1-0.9-2.3-1.5-3.7-2c-1.4-0.5-3-0.7-4.6-0.7
	c-1.7,0-3.2,0.2-4.6,0.7c-1.4,0.5-2.6,1.1-3.6,2c-1,0.9-1.8,1.9-2.4,3.2c-0.6,1.2-0.9,2.7-0.9,4.2V84.4z M137.3,70
	c0-1.8-0.3-3.4-0.9-4.7c-0.6-1.3-1.5-2.3-2.6-3.1c-1.1-0.8-2.4-1.4-4-1.7c-1.5-0.4-3.2-0.5-5.1-0.5c-1.5,0-2.8,0.1-3.8,0.3
	c-1,0.2-1.8,0.4-2.4,0.8c-0.6,0.3-1,0.7-1.3,1.1c-0.2,0.4-0.4,0.9-0.4,1.3c0,0.6,0.2,1.2,0.5,1.6c0.3,0.4,0.6,0.7,0.8,0.9
	c0.3-0.3,1.1-0.6,2.2-1c1.1-0.4,2.5-0.6,4.3-0.6c1.1,0,2.1,0.1,2.9,0.2c0.9,0.2,1.6,0.4,2.3,0.9c0.6,0.4,1.1,1,1.5,1.7
	c0.4,0.7,0.5,1.6,0.5,2.8c-0.5-0.1-1.3-0.1-2.4-0.2c-1.1-0.1-2.2-0.1-3.4-0.1c-2.1,0-3.9,0.2-5.3,0.5c-1.5,0.3-2.6,0.8-3.5,1.5
	c-0.9,0.7-1.5,1.5-1.9,2.5c-0.4,1-0.6,2.1-0.6,3.4c0,1,0.2,1.9,0.5,2.9c0.3,0.9,0.9,1.8,1.8,2.5c0.9,0.7,2.1,1.3,3.7,1.7
	c1.6,0.4,3.6,0.6,6,0.6c1.2,0,2.4,0,3.6-0.1c1.1-0.1,2.2-0.1,3.1-0.2c0.9-0.1,1.7-0.2,2.4-0.2c0.7-0.1,1.2-0.1,1.5-0.2V70z
	 M132,80.7c-0.3,0.1-0.9,0.1-1.7,0.3c-0.9,0.1-2,0.2-3.5,0.2c-1.3,0-2.4-0.1-3.2-0.3c-0.9-0.2-1.6-0.4-2.1-0.8
	c-0.5-0.3-0.9-0.7-1.1-1.2c-0.2-0.5-0.3-1-0.3-1.6c0-1.4,0.5-2.4,1.5-3.1c1-0.6,2.5-1,4.7-1c1.7,0,3,0.1,3.9,0.2
	c0.9,0.1,1.5,0.2,1.8,0.3V80.7z M140.9,93.8h5.4V81.4c0.8,1,1.9,1.9,3.3,2.6c1.4,0.7,3,1,4.8,1c1.7,0,3.3-0.3,4.8-0.9
	c1.5-0.6,2.7-1.5,3.8-2.6c1.1-1.1,1.9-2.4,2.6-4c0.6-1.5,0.9-3.2,0.9-5c0-1.8-0.3-3.5-0.9-5c-0.6-1.5-1.5-2.9-2.6-4
	c-1.1-1.1-2.4-2-4-2.6c-1.5-0.6-3.2-0.9-5-0.9c-2,0-3.7,0.3-5.4,0.9c-1.6,0.6-3,1.5-4.1,2.6c-1.1,1.2-2,2.6-2.7,4.3
	c-0.6,1.7-0.9,3.6-0.9,5.9V93.8z M153.6,80.2c-1.1,0-2.1-0.2-3-0.6c-0.9-0.4-1.7-0.9-2.3-1.6c-0.6-0.7-1.1-1.5-1.5-2.5
	c-0.4-0.9-0.5-2-0.5-3.1c0-1.1,0.2-2.2,0.5-3.1c0.4-0.9,0.9-1.7,1.5-2.4c0.6-0.7,1.4-1.2,2.3-1.6c0.9-0.4,1.9-0.6,3-0.6
	c1.1,0,2.1,0.2,3,0.6c0.9,0.4,1.7,0.9,2.3,1.6c0.6,0.7,1.1,1.5,1.5,2.4c0.3,0.9,0.5,1.9,0.5,3c0,1.1-0.2,2.1-0.5,3.1
	c-0.3,0.9-0.8,1.8-1.5,2.5c-0.6,0.7-1.4,1.2-2.3,1.6C155.6,80,154.6,80.2,153.6,80.2 M167.6,82.1c0.2,0.2,0.6,0.4,1.2,0.7
	c0.6,0.3,1.5,0.6,2.5,1c1,0.3,2.2,0.6,3.6,0.9c1.4,0.3,2.9,0.4,4.6,0.4c3.5,0,6.2-0.7,8.1-2.1c1.9-1.4,2.8-3.3,2.8-5.7
	c0-2.1-0.7-3.7-2.2-4.8c-1.5-1.1-3.5-1.8-6.1-2.2l-4.8-0.6c-1.3-0.2-2.3-0.5-3-0.9c-0.7-0.4-1-1-1-1.9c0-1.9,1.8-2.9,5.5-2.9
	c1.3,0,2.5,0.1,3.5,0.3c1,0.2,1.9,0.4,2.6,0.7c0.7,0.3,1.3,0.5,1.7,0.8c0.4,0.3,0.7,0.5,0.8,0.6c0.1,0,0.2-0.1,0.4-0.3
	c0.2-0.1,0.4-0.3,0.5-0.5c0.2-0.2,0.3-0.5,0.5-0.8c0.1-0.3,0.2-0.6,0.2-1c0-1.2-0.9-2.1-2.7-2.8c-1.8-0.7-4.4-1.1-7.7-1.1
	c-2,0-3.6,0.2-5,0.6c-1.4,0.4-2.5,0.9-3.3,1.6s-1.5,1.5-1.9,2.4c-0.4,0.9-0.6,1.9-0.6,2.9c0,1.2,0.2,2.2,0.6,3
	c0.4,0.8,1,1.5,1.8,2.1c0.8,0.6,1.7,1,2.7,1.4c1.1,0.3,2.2,0.6,3.5,0.7l3.7,0.4c1.7,0.2,2.9,0.5,3.6,1c0.7,0.5,1,1.1,1,2
	c0,1-0.5,1.8-1.6,2.2s-2.4,0.6-4,0.6c-1.3,0-2.4-0.1-3.5-0.3c-1.1-0.2-2-0.4-2.9-0.7c-0.8-0.3-1.5-0.5-2.1-0.8
	c-0.6-0.3-1-0.5-1.2-0.6L167.6,82.1z M212.3,78.8c-0.2,0.1-0.5,0.2-0.9,0.4c-0.4,0.2-0.9,0.4-1.4,0.6c-0.6,0.2-1.2,0.3-1.9,0.5
	c-0.7,0.1-1.5,0.2-2.3,0.2c-2.4,0-4.3-0.5-5.6-1.5c-1.3-1-2.1-2.3-2.3-3.9c0.6,0,1.2,0.1,1.8,0.1c0.6,0,1.1,0,1.8,0
	c2.7,0,5-0.2,6.7-0.5c1.8-0.4,3.2-0.9,4.2-1.5c1-0.6,1.8-1.4,2.2-2.3c0.4-0.9,0.6-1.9,0.6-3c0-1.1-0.2-2.1-0.7-3
	c-0.4-0.9-1.1-1.8-2-2.5c-0.9-0.7-1.9-1.3-3.2-1.7c-1.3-0.4-2.7-0.6-4.4-0.6c-1.9,0-3.6,0.3-5.1,0.9s-2.9,1.5-4.1,2.6
	c-1.2,1.1-2.1,2.5-2.7,4c-0.6,1.6-1,3.3-1,5.2c0,2,0.3,3.8,1,5.3c0.7,1.5,1.6,2.8,2.7,3.9c1.2,1.1,2.5,1.9,4,2.4
	c1.5,0.5,3.2,0.8,5,0.8c1.3,0,2.4-0.1,3.5-0.3c1.1-0.2,2-0.4,2.8-0.7c0.8-0.3,1.5-0.5,2-0.8c0.5-0.3,0.9-0.5,1.2-0.7L212.3,78.8z
	 M197.6,71.4c0-0.9,0.2-1.8,0.5-2.7c0.3-0.9,0.8-1.7,1.4-2.3c0.6-0.7,1.3-1.2,2.2-1.6c0.9-0.4,1.9-0.6,3.1-0.6
	c1.4,0,2.6,0.3,3.6,0.9c1,0.6,1.4,1.5,1.4,2.7c0,0.5-0.1,0.9-0.3,1.4c-0.2,0.4-0.6,0.8-1.2,1.2c-0.6,0.3-1.4,0.6-2.5,0.9
	c-1.1,0.2-2.5,0.3-4.2,0.3h-2C199,71.4,198.3,71.4,197.6,71.4"/>
</svg>
