
<svg width="13px" height="7px" viewBox="0 0 13 7" version="1.1" xmlns="http://www.w3.org/2000/svg" xmlns:xlink="http://www.w3.org/1999/xlink">
    <!-- Generator: Sketch 46 (44423) - http://www.bohemiancoding.com/sketch -->
    <desc>Created with Sketch.</desc>
    <defs></defs>
    <g id="mobile-320" stroke="none" stroke-width="1" fill="none" fill-rule="evenodd">
        <g id="320-dropdown-expand" transform="translate(-287.000000, -104.000000)" fill="#FFFFFF">
            <g id="Group-8" transform="translate(20.000000, 82.000000)">
                <path d="M273.152344,26.6757818 L277.910157,22.1093755 C278.055991,21.9635415 278.201823,21.9635415 278.347657,22.1093755 L279.195313,22.929688 C279.341147,23.0755221 279.341147,23.221354 279.195313,23.367188 L273.371094,28.945313 C273.316407,29.0000008 273.243491,29.0273443 273.152344,29.0273443 C273.061198,29.0273443 272.988282,29.0000008 272.933594,28.945313 L267.109376,23.367188 C266.963541,23.221354 266.963541,23.0755221 267.109376,22.929688 L267.957032,22.1093755 C268.102866,21.9635415 268.248698,21.9635415 268.394532,22.1093755 L273.152344,26.6757818 Z" id="ion-chevron-down---Ionicons" transform="translate(273.152344, 25.513672) scale(1, -1) translate(-273.152344, -25.513672) "></path>
            </g>
        </g>
    </g>
</svg>