<svg version="1.1" id="Layer_1" xmlns="http://www.w3.org/2000/svg" xmlns:xlink="http://www.w3.org/1999/xlink" x="0px" y="0px"
	 width="28px" height="28px" viewBox="0 0 28 28" enable-background="new 0 0 28 28" xml:space="preserve">
<path fill="#FFFFFF" d="M17.027,6.685c1.082-0.029,2.15,0.188,2.967,0.989c0.469,0.475,2.012-0.472,2.502-0.732
	c-0.207,0.837-0.859,1.537-1.541,2.021C21.658,8.902,22.33,8.614,23,8.419c-0.006,0.01-0.078,0.102-0.078,0.117
	c-0.203,0.354-0.527,0.675-0.814,0.962c-0.246,0.246-0.588,0.458-0.789,0.742c-0.234,0.328-0.148,0.866-0.176,1.247
	c-0.234,3.293-2.1,6.682-5.008,8.351c-1.899,1.101-4.18,1.65-6.354,1.438c-1.52-0.125-2.943-0.613-4.29-1.312
	C5.323,19.877,5.104,19.77,5,19.637c1.669,0.256,4.21-0.239,5.421-1.518c-1.594-0.057-2.885-1.104-3.425-2.573
	c0.507,0.087,1.14,0.123,1.623-0.057c-1.783-0.404-2.798-1.929-2.921-3.676c0.514,0.229,1.066,0.449,1.639,0.445
	c-1.585-1.191-1.964-3.167-1.095-4.926c1.842,2.229,4.675,3.783,7.604,3.863c-0.177-0.958-0.045-2.007,0.504-2.83
	c0.329-0.493,0.752-0.907,1.272-1.196C15.738,7.104,17.027,6.617,17.027,6.685z"/>
</svg>
