<?xml version="1.0" encoding="utf-8"?>
<!-- Generator: Adobe Illustrator 16.0.0, SVG Export Plug-In . SVG Version: 6.00 Build 0)  -->
<!DOCTYPE svg PUBLIC "-//W3C//DTD SVG 1.1//EN" "http://www.w3.org/Graphics/SVG/1.1/DTD/svg11.dtd">
<svg version="1.1" id="Layer_1" xmlns="http://www.w3.org/2000/svg" xmlns:xlink="http://www.w3.org/1999/xlink" x="0px" y="0px"
	 width="28px" height="28px" viewBox="0 0 28 28" enable-background="new 0 0 28 28" xml:space="preserve">
<g>
	<path fill="#FFFFFF" d="M18.016,5.107c1.223,0.007,2.214,0.956,2.3,2.186c0.088,1.237-0.768,2.306-1.901,2.495
		c-0.778,0.128-1.45-0.096-2.012-0.643c-0.092-0.089-0.139-0.096-0.241-0.018c-2.015,1.546-4.034,3.088-6.052,4.626
		c-0.096,0.071-0.121,0.135-0.092,0.252c0.131,0.576,0.064,1.13-0.213,1.653c-0.074,0.139-0.046,0.181,0.082,0.241
		c1.837,0.87,3.675,1.745,5.512,2.619c0.352,0.167,0.707,0.33,1.056,0.505c0.121,0.061,0.195,0.061,0.306-0.035
		c0.935-0.811,2.143-0.8,3.077,0.018c0.697,0.611,0.945,1.705,0.598,2.604c-0.362,0.928-1.22,1.518-2.182,1.496
		c-1.508-0.032-2.569-1.468-2.186-2.964c0.038-0.148,0.003-0.206-0.125-0.267c-2.274-1.076-4.549-2.16-6.823-3.24
		c-0.099-0.047-0.178-0.051-0.277,0.003c-1.429,0.761-3.195-0.202-3.344-1.812c-0.114-1.229,0.586-2.281,1.738-2.565
		c0.792-0.199,1.503-0.003,2.1,0.551c0.1,0.092,0.149,0.082,0.245,0.007c2.019-1.549,4.041-3.095,6.066-4.634
		c0.117-0.089,0.143-0.178,0.117-0.313c-0.23-1.3,0.625-2.516,1.927-2.736C17.789,5.111,17.902,5.114,18.016,5.107z"/>
</g>
</svg>
