<svg version="1.1" id="Layer_1" xmlns="http://www.w3.org/2000/svg" xmlns:xlink="http://www.w3.org/1999/xlink" x="0px" y="0px"
	 width="28px" height="28px" viewBox="0 0 28 28" enable-background="new 0 0 28 28" xml:space="preserve">
<path fill="#FFFFFF" d="M5,6.896C5,6.317,5.203,5.84,5.608,5.464s0.933-0.565,1.581-0.565c0.637,0,1.152,0.187,1.546,0.556
	c0.405,0.383,0.608,0.881,0.608,1.494c0,0.557-0.197,1.021-0.591,1.391c-0.405,0.382-0.938,0.572-1.6,0.572H7.137
	c-0.637,0-1.153-0.19-1.546-0.572C5.196,7.956,5,7.477,5,6.896z M5.226,22.1V10.493h3.856V22.1H5.226z M11.221,22.1h3.856v-6.48
	c0-0.404,0.046-0.719,0.14-0.938c0.163-0.395,0.409-0.728,0.738-0.999c0.33-0.272,0.744-0.408,1.242-0.408
	c1.297,0,1.945,0.874,1.945,2.624v6.203H23v-6.654c0-1.716-0.405-3.016-1.217-3.901c-0.812-0.887-1.883-1.328-3.215-1.328
	c-1.494,0-2.658,0.643-3.492,1.928v0.035h-0.018l0.018-0.035v-1.65H11.22c0.022,0.371,0.035,1.523,0.035,3.458
	C11.255,15.885,11.243,18.602,11.221,22.1z"/>
</svg>