<svg version="1.1" id="Layer_1" xmlns="http://www.w3.org/2000/svg" xmlns:xlink="http://www.w3.org/1999/xlink" x="0px" y="0px"
	 width="28px" height="28px" viewBox="0 0 28 28" enable-background="new 0 0 28 28" xml:space="preserve">
<path fill="#FFFFFF" d="M11,14.5c0-1.657,1.343-3,3-3c1.658,0,3,1.344,3,3c0,1.657-1.344,3-3,3C12.344,17.5,11,16.157,11,14.5
	 M9.378,14.5c0,2.553,2.069,4.621,4.622,4.621c2.552,0,4.623-2.068,4.623-4.621S16.553,9.878,14,9.878
	C11.447,9.878,9.378,11.947,9.378,14.5 M17.725,9.695c0,0.596,0.482,1.08,1.08,1.08c0.596,0,1.08-0.484,1.08-1.08
	c0-0.597-0.482-1.08-1.08-1.08C18.207,8.616,17.725,9.099,17.725,9.695 M10.363,21.826c-0.877-0.041-1.354-0.188-1.671-0.311
	c-0.42-0.164-0.72-0.357-1.034-0.674c-0.315-0.313-0.511-0.613-0.673-1.034c-0.124-0.316-0.27-0.794-0.31-1.672
	c-0.043-0.948-0.052-1.232-0.052-3.637s0.009-2.688,0.052-3.637c0.04-0.877,0.187-1.354,0.31-1.671
	c0.164-0.42,0.358-0.721,0.673-1.035c0.314-0.315,0.613-0.512,1.034-0.673c0.317-0.124,0.794-0.271,1.671-0.311
	C11.312,7.13,11.597,7.121,14,7.121c2.404,0,2.687,0.009,3.636,0.052c0.879,0.04,1.355,0.188,1.672,0.311
	c0.42,0.163,0.719,0.357,1.035,0.673c0.314,0.313,0.51,0.615,0.674,1.035c0.123,0.316,0.27,0.794,0.311,1.671
	c0.042,0.95,0.053,1.233,0.053,3.637c0,2.402-0.011,2.688-0.053,3.637c-0.041,0.878-0.188,1.354-0.311,1.672
	c-0.164,0.421-0.357,0.721-0.674,1.034c-0.314,0.315-0.615,0.51-1.035,0.674c-0.316,0.123-0.793,0.27-1.672,0.311
	c-0.949,0.043-1.232,0.053-3.636,0.053C11.597,21.879,11.312,21.869,10.363,21.826 M10.29,5.554C9.332,5.597,8.677,5.75,8.104,5.972
	C7.512,6.202,7.012,6.51,6.511,7.01c-0.5,0.5-0.809,1.002-1.038,1.594C5.25,9.176,5.097,9.831,5.054,10.789
	C5.01,11.749,5,12.056,5,14.5s0.009,2.75,0.054,3.711c0.043,0.958,0.195,1.612,0.418,2.185c0.229,0.593,0.537,1.095,1.038,1.595
	c0.5,0.501,1.001,0.808,1.593,1.038c0.573,0.223,1.228,0.374,2.186,0.418c0.96,0.043,1.267,0.055,3.711,0.055
	c2.445,0,2.749-0.011,3.71-0.055c0.957-0.044,1.611-0.195,2.183-0.418c0.595-0.23,1.097-0.537,1.597-1.038
	c0.5-0.5,0.809-1.002,1.039-1.595c0.223-0.571,0.375-1.227,0.418-2.185C22.989,17.249,23,16.944,23,14.5s-0.011-2.751-0.053-3.711
	c-0.046-0.958-0.195-1.612-0.418-2.186c-0.23-0.592-0.539-1.093-1.039-1.594c-0.5-0.5-1.002-0.808-1.595-1.038
	c-0.571-0.222-1.228-0.375-2.185-0.418C16.752,5.511,16.445,5.499,14,5.499C11.555,5.5,11.25,5.51,10.29,5.554"/>
</svg>
