<svg width="25px" height="22px" viewBox="0 0 25 22" version="1.1" xmlns="http://www.w3.org/2000/svg" xmlns:xlink="http://www.w3.org/1999/xlink">
    <defs></defs>
    <g id="Page-1" stroke="none" stroke-width="1" fill="none" fill-rule="evenodd">
        <g id="Group" transform="translate(0.000000, -1.000000)" fill="#006243">
            <path d="M14.140625,6 L7.6171875,-0.796875 C7.40885312,-1.00520937 7.40885312,-1.21354062 7.6171875,-1.421875 L8.7890625,-2.59375 C9.02343867,-2.80208437 9.23176992,-2.81510508 9.4140625,-2.6328125 L17.3828125,5.6875 C17.4609379,5.76562539 17.5,5.86979102 17.5,6 C17.5,6.13020898 17.4609379,6.23437461 17.3828125,6.3125 L9.4140625,14.6328125 C9.20572812,14.8411469 8.99739687,14.8411469 8.7890625,14.6328125 L7.6171875,13.421875 C7.40885312,13.2135406 7.40885312,13.0052094 7.6171875,12.796875 L14.140625,6 Z" id="" transform="translate(12.480468, 6.014323) rotate(-270.000000) translate(-12.480468, -6.014323) "></path>
            <rect id="Rectangle-18" x="6" y="15" width="13" height="3"></rect>
            <rect id="Rectangle-18" x="0" y="20" width="25" height="3"></rect>
        </g>
    </g>
</svg>