<svg version="1.1" id="Layer_1" xmlns="http://www.w3.org/2000/svg" xmlns:xlink="http://www.w3.org/1999/xlink" x="0px" y="0px"
	 width="28px" height="28px" viewBox="0 0 28 28" enable-background="new 0 0 28 28" xml:space="preserve">
<path fill="#FFFFFF" d="M12.024,22.557c-4.381-0.081-5.876-0.152-6.795-0.343c-0.622-0.126-1.163-0.405-1.56-0.811
	c-0.307-0.308-0.55-0.775-0.739-1.425c-0.162-0.541-0.225-0.991-0.314-2.092c-0.138-2.48-0.17-4.509,0-6.776
	c0.141-1.252,0.209-2.738,1.145-3.605c0.441-0.406,0.956-0.667,1.532-0.774c0.901-0.172,4.741-0.308,8.716-0.308
	c3.966,0,7.815,0.136,8.716,0.308c0.722,0.136,1.396,0.541,1.794,1.062c0.854,1.343,0.868,3.012,0.955,4.317
	c0.035,0.622,0.035,4.154,0,4.776c-0.135,2.063-0.243,2.794-0.55,3.552c-0.188,0.478-0.353,0.729-0.631,1.01
	c-0.439,0.43-0.999,0.716-1.604,0.819C18.896,22.553,15.678,22.615,12.024,22.557L12.024,22.557z M17.829,14.265
	c-2.108-1.127-4.128-2.172-6.192-3.254v6.471c2.172-1.182,4.461-2.264,6.202-3.226L17.829,14.265L17.829,14.265z"/>
</svg>
