<svg width="14px" height="14px" viewBox="0 0 14 14" version="1.1" xmlns="http://www.w3.org/2000/svg" xmlns:xlink="http://www.w3.org/1999/xlink">
    <defs></defs>
    <g id="desktop-1280" stroke="none" stroke-width="1" fill="none" fill-rule="evenodd">
        <g id="15a_AAN_Article_Program" transform="translate(-990.000000, -603.000000)" fill-rule="nonzero" fill="#006243">
            <g id="noun_1119743" transform="translate(990.000000, 603.000000)">
                <path d="M12.7555556,12.1333333 C12.7555556,12.4790123 12.4790123,12.7555556 12.1333333,12.7555556 L1.86666667,12.7555556 C1.52098765,12.7555556 1.24444444,12.4790123 1.24444444,12.1333333 L1.24444444,1.86666667 C1.24444444,1.52098765 1.52098765,1.24444444 1.86666667,1.24444444 L5.91111111,1.24444444 L5.91111111,0 L1.86666667,0 C0.82962963,0 0,0.82962963 0,1.86666667 L0,12.1333333 C0,13.1703704 0.82962963,14 1.86666667,14 L12.1333333,14 C13.1703704,14 14,13.1703704 14,12.1333333 L14,8.08888889 L12.7555556,8.08888889 L12.7555556,12.1333333 Z" id="Shape"></path>
                <polygon id="Shape" points="8.10344828 0 8.10344828 1.24137931 11.8793103 1.24137931 7 6.12068966 7.87931034 7 12.7586207 2.12068966 12.7586207 5.89655172 14 5.89655172 14 0"></polygon>
            </g>
        </g>
    </g>
</svg>