<?xml version="1.0" encoding="utf-8"?>
<!-- Generator: Adobe Illustrator 21.1.0, SVG Export Plug-In . SVG Version: 6.00 Build 0)  -->
<svg version="1.1" id="synapse" xmlns="http://www.w3.org/2000/svg" xmlns:xlink="http://www.w3.org/1999/xlink" x="0px" y="0px"
	 viewBox="0 0 252 144" enable-background="new 0 0 252 144" xml:space="preserve">
<path id="subtitle" d="M64.7,130.6c0.6-1.5,1.2-3.1,1.8-4.6c0.7-1.6,1.3-3.1,2.1-4.7c0.2-0.4,0.3-0.6,0.5-0.7
	c0.2-0.1,0.4-0.2,0.6-0.2c0.2,0,0.3,0,0.5,0.1c0.1,0.1,0.2,0.1,0.2,0.1c0.2,0.3,0.4,0.7,0.7,1.3c0.3,0.6,0.5,1.2,0.8,1.8
	c0.3,0.7,0.6,1.4,0.9,2.1c0.3,0.7,0.6,1.4,0.8,2.1c0.3,0.7,0.5,1.2,0.7,1.7c0.2,0.5,0.3,0.9,0.4,1.1h-1.1c0-0.1-0.1-0.3-0.2-0.6
	c-0.1-0.3-0.2-0.6-0.3-0.9c-0.1-0.3-0.2-0.6-0.4-0.9s-0.2-0.5-0.3-0.7h-5.5c-0.3,0.7-0.5,1.3-0.7,1.8c-0.2,0.6-0.4,1-0.5,1.2H64.7z
	 M69.7,121.2c-0.4,0.8-0.8,1.7-1.2,2.6c-0.4,0.9-0.8,1.9-1.2,2.8h4.9c-0.2-0.4-0.4-0.9-0.6-1.5c-0.2-0.5-0.4-1.1-0.7-1.6
	s-0.4-1-0.6-1.4C70,121.7,69.8,121.4,69.7,121.2 M75.4,130.6c0.6-1.5,1.2-3.1,1.8-4.6c0.7-1.6,1.3-3.1,2.1-4.7
	c0.2-0.4,0.3-0.6,0.5-0.7c0.2-0.1,0.4-0.2,0.6-0.2c0.2,0,0.3,0,0.5,0.1c0.1,0.1,0.2,0.1,0.2,0.1c0.2,0.3,0.4,0.7,0.6,1.3
	c0.3,0.6,0.5,1.2,0.8,1.8c0.3,0.7,0.6,1.4,0.9,2.1s0.6,1.4,0.8,2.1c0.3,0.7,0.5,1.2,0.7,1.7c0.2,0.5,0.3,0.9,0.4,1.1h-1.1
	c0-0.1-0.1-0.3-0.2-0.6c-0.1-0.3-0.2-0.6-0.3-0.9c-0.1-0.3-0.2-0.6-0.4-0.9c-0.1-0.3-0.2-0.5-0.3-0.7h-5.5c-0.3,0.7-0.5,1.3-0.7,1.8
	c-0.2,0.6-0.4,1-0.5,1.2H75.4z M80.3,121.2c-0.4,0.8-0.8,1.7-1.2,2.6c-0.4,0.9-0.8,1.9-1.2,2.8h4.9c-0.2-0.4-0.4-0.9-0.6-1.5
	c-0.2-0.5-0.4-1.1-0.7-1.6c-0.2-0.5-0.4-1-0.6-1.4C80.6,121.7,80.5,121.4,80.3,121.2 M94.9,130.6v-9.9c0,0-0.1-0.1-0.2-0.1
	c-0.1,0-0.2,0-0.3,0c-0.2,0-0.3,0-0.4,0.1c-0.1,0.1-0.1,0.2-0.1,0.4v8.1c-0.3-0.5-0.6-1-1-1.5c-0.4-0.5-0.7-1.1-1.1-1.6
	c-0.4-0.5-0.8-1.1-1.1-1.6c-0.4-0.5-0.7-1-1.1-1.5c-0.3-0.5-0.6-0.9-0.9-1.2c-0.3-0.4-0.5-0.6-0.6-0.8c-0.1-0.1-0.2-0.1-0.3-0.2
	c-0.1-0.1-0.3-0.1-0.5-0.1c-0.2,0-0.4,0.1-0.5,0.2c-0.1,0.1-0.2,0.3-0.2,0.4v9.4h1v-8.9c0.5,0.7,1,1.4,1.6,2.2
	c0.6,0.8,1.1,1.6,1.7,2.4c0.6,0.8,1.1,1.6,1.6,2.3c0.5,0.8,0.9,1.4,1.3,2H94.9z M111,125.6c0,0.8-0.1,1.5-0.4,2.1
	c-0.3,0.6-0.6,1.2-1.1,1.7c-0.5,0.5-1,0.8-1.7,1.1s-1.3,0.4-2.1,0.4c-0.8,0-1.4-0.1-2.1-0.4c-0.6-0.3-1.2-0.6-1.7-1.1
	c-0.5-0.5-0.8-1-1.1-1.7c-0.3-0.6-0.4-1.4-0.4-2.1c0-0.8,0.1-1.5,0.4-2.1s0.6-1.2,1.1-1.7c0.5-0.5,1-0.8,1.7-1.1
	c0.6-0.3,1.3-0.4,2.1-0.4c0.8,0,1.4,0.1,2.1,0.4s1.2,0.6,1.7,1.1c0.5,0.5,0.8,1,1.1,1.7S111,124.8,111,125.6 M110,125.6
	c0-0.6-0.1-1.2-0.3-1.8c-0.2-0.5-0.5-1-0.9-1.4s-0.8-0.7-1.3-0.9c-0.5-0.2-1.1-0.3-1.7-0.3s-1.1,0.1-1.7,0.3
	c-0.5,0.2-0.9,0.5-1.3,0.9c-0.4,0.4-0.7,0.8-0.9,1.4c-0.2,0.5-0.3,1.1-0.3,1.8c0,0.6,0.1,1.2,0.3,1.8c0.2,0.5,0.5,1,0.9,1.4
	c0.4,0.4,0.8,0.7,1.3,0.9c0.5,0.2,1.1,0.3,1.7,0.3s1.1-0.1,1.7-0.3c0.5-0.2,1-0.5,1.3-0.9c0.4-0.4,0.7-0.9,0.9-1.4
	C109.9,126.8,110,126.2,110,125.6 M119.2,130.6v-4.3c0-0.5-0.1-0.9-0.2-1.3c-0.2-0.4-0.4-0.7-0.7-1c-0.3-0.3-0.6-0.5-1.1-0.6
	c-0.4-0.2-0.9-0.2-1.4-0.2s-1,0.1-1.4,0.2s-0.8,0.4-1.1,0.6c-0.3,0.3-0.5,0.6-0.7,1c-0.2,0.4-0.2,0.8-0.2,1.3v4.3h1v-4
	c0-0.8,0.2-1.4,0.6-1.9c0.4-0.4,1-0.7,1.8-0.7c0.8,0,1.4,0.2,1.8,0.7c0.4,0.4,0.6,1.1,0.6,1.9v4H119.2z M120.8,130.6h1V120
	c0,0-0.1,0-0.2-0.1c-0.1,0-0.2,0-0.3,0c-0.2,0-0.3,0-0.4,0.1c-0.1,0.1-0.1,0.2-0.1,0.4V130.6z M124.6,120.8c0,0.2-0.1,0.4-0.2,0.5
	c-0.1,0.1-0.3,0.2-0.5,0.2c-0.2,0-0.4-0.1-0.5-0.2c-0.1-0.1-0.2-0.3-0.2-0.5s0.1-0.4,0.2-0.5c0.1-0.1,0.3-0.2,0.5-0.2
	c0.2,0,0.4,0.1,0.5,0.2C124.5,120.5,124.6,120.7,124.6,120.8 M123.4,123.9c0-0.1,0-0.3,0.1-0.4c0.1-0.1,0.2-0.1,0.4-0.1
	c0.1,0,0.2,0,0.3,0c0.1,0,0.1,0,0.2,0.1v7.1h-1V123.9z M132.8,130.6v-4.3c0-0.5-0.1-0.9-0.2-1.3s-0.4-0.7-0.7-1
	c-0.3-0.3-0.7-0.5-1.1-0.6c-0.4-0.2-0.9-0.2-1.4-0.2s-1,0.1-1.4,0.2s-0.8,0.4-1.1,0.6c-0.3,0.3-0.5,0.6-0.7,1s-0.2,0.8-0.2,1.3v4.3
	h1v-4c0-0.8,0.2-1.4,0.6-1.9c0.4-0.4,1-0.7,1.8-0.7s1.4,0.2,1.8,0.7c0.4,0.4,0.6,1.1,0.6,1.9v4H132.8z M135,127.6
	c0.1,0.8,0.4,1.3,0.9,1.7c0.5,0.4,1.2,0.6,2,0.6c0.5,0,0.9-0.1,1.3-0.2c0.3-0.1,0.6-0.3,0.8-0.4l0.4,0.7c-0.1,0-0.2,0.1-0.4,0.2
	c-0.2,0.1-0.3,0.2-0.6,0.2s-0.5,0.1-0.8,0.2c-0.3,0.1-0.6,0.1-0.9,0.1c-0.5,0-1-0.1-1.5-0.2c-0.5-0.2-0.9-0.4-1.2-0.7
	c-0.4-0.3-0.6-0.7-0.8-1.2c-0.2-0.5-0.3-1-0.3-1.6c0-0.6,0.1-1.1,0.3-1.6c0.2-0.5,0.5-0.9,0.8-1.2c0.4-0.3,0.8-0.6,1.2-0.8
	c0.5-0.2,1-0.3,1.6-0.3c0.5,0,0.9,0.1,1.3,0.2c0.4,0.1,0.7,0.3,0.9,0.5c0.2,0.2,0.4,0.4,0.5,0.7c0.1,0.3,0.2,0.6,0.2,0.9
	s-0.1,0.6-0.2,0.9c-0.1,0.3-0.4,0.5-0.7,0.7c-0.3,0.2-0.7,0.4-1.3,0.5s-1.2,0.2-2,0.2c-0.3,0-0.6,0-0.9,0
	C135.6,127.7,135.3,127.7,135,127.6 M135,126.9c0.3,0,0.5,0,0.8,0c0.2,0,0.5,0,0.8,0c0.7,0,1.2,0,1.6-0.1c0.4-0.1,0.8-0.2,1-0.3
	c0.2-0.1,0.4-0.3,0.5-0.5c0.1-0.2,0.1-0.4,0.1-0.6c0-0.3-0.1-0.5-0.2-0.7c-0.1-0.2-0.3-0.3-0.5-0.4c-0.2-0.1-0.4-0.2-0.6-0.2
	c-0.2,0-0.5-0.1-0.7-0.1c-0.5,0-0.9,0.1-1.2,0.2c-0.4,0.2-0.6,0.4-0.9,0.6c-0.2,0.3-0.4,0.6-0.6,0.9
	C135.1,126.1,135,126.5,135,126.9 M153.9,121.1c-0.2-0.2-0.6-0.3-1.1-0.5c-0.5-0.2-1.1-0.2-1.9-0.2c-0.7,0-1.4,0.1-2,0.4
	c-0.6,0.2-1.2,0.6-1.7,1.1c-0.5,0.5-0.9,1-1.1,1.7c-0.3,0.7-0.4,1.4-0.4,2.2c0,0.8,0.1,1.6,0.4,2.2c0.3,0.6,0.7,1.2,1.2,1.6
	c0.5,0.4,1,0.8,1.7,1s1.3,0.4,2,0.4c0.5,0,0.9,0,1.2-0.1c0.4-0.1,0.7-0.1,1-0.2c0.3-0.1,0.5-0.2,0.7-0.3c0.2-0.1,0.3-0.2,0.5-0.3
	l-0.4-0.8c-0.1,0.1-0.2,0.1-0.4,0.2c-0.2,0.1-0.4,0.2-0.6,0.2c-0.2,0.1-0.5,0.1-0.8,0.2s-0.6,0.1-1,0.1c-0.6,0-1.1-0.1-1.7-0.3
	c-0.5-0.2-1-0.5-1.4-0.8c-0.4-0.4-0.7-0.8-0.9-1.4c-0.2-0.5-0.3-1.2-0.3-1.9c0-0.7,0.1-1.3,0.3-1.8c0.2-0.5,0.5-1,0.9-1.4
	c0.4-0.4,0.8-0.7,1.3-0.9c0.5-0.2,1-0.3,1.6-0.3c0.3,0,0.7,0,1,0.1c0.3,0.1,0.6,0.2,0.8,0.3c0.3,0.1,0.5,0.2,0.7,0.3
	s0.3,0.2,0.4,0.4c0.1,0,0.2-0.1,0.3-0.3c0.1-0.1,0.2-0.2,0.2-0.4c0-0.1,0-0.2-0.1-0.3C154.2,121.3,154.1,121.2,153.9,121.1
	 M162.6,127c0,0.5-0.1,1-0.3,1.5c-0.2,0.5-0.5,0.9-0.8,1.2s-0.8,0.6-1.2,0.8c-0.5,0.2-1,0.3-1.6,0.3s-1.1-0.1-1.6-0.3
	c-0.5-0.2-0.9-0.5-1.2-0.8c-0.3-0.3-0.6-0.8-0.8-1.2c-0.2-0.5-0.3-1-0.3-1.5c0-0.5,0.1-1,0.3-1.5c0.2-0.5,0.5-0.9,0.8-1.2
	c0.3-0.3,0.8-0.6,1.2-0.8c0.5-0.2,1-0.3,1.6-0.3s1.1,0.1,1.6,0.3c0.5,0.2,0.9,0.5,1.2,0.8c0.3,0.3,0.6,0.8,0.8,1.2
	C162.5,126,162.6,126.5,162.6,127 M161.6,127c0-0.4-0.1-0.8-0.2-1.2c-0.1-0.4-0.3-0.7-0.6-1c-0.3-0.3-0.6-0.5-0.9-0.6
	c-0.4-0.2-0.7-0.2-1.2-0.2c-0.4,0-0.8,0.1-1.2,0.2c-0.4,0.2-0.7,0.4-0.9,0.6c-0.3,0.3-0.4,0.6-0.6,1c-0.1,0.4-0.2,0.8-0.2,1.2
	c0,0.4,0.1,0.8,0.2,1.2c0.1,0.4,0.3,0.7,0.6,1c0.2,0.3,0.5,0.5,0.9,0.6c0.4,0.2,0.7,0.2,1.2,0.2c0.4,0,0.8-0.1,1.2-0.2
	c0.4-0.2,0.7-0.4,0.9-0.6c0.3-0.3,0.4-0.6,0.6-1C161.5,127.8,161.6,127.4,161.6,127 M175.6,130.6v-4.7c0-0.5-0.1-0.9-0.2-1.2
	c-0.2-0.3-0.4-0.6-0.6-0.9c-0.3-0.2-0.6-0.4-1-0.5s-0.8-0.2-1.2-0.2c-0.6,0-1.2,0.1-1.6,0.4c-0.5,0.3-0.9,0.6-1.2,1.2
	c-0.3-0.5-0.7-0.9-1.2-1.2c-0.5-0.3-1.1-0.4-1.7-0.4c-0.4,0-0.8,0.1-1.2,0.2c-0.4,0.1-0.7,0.3-1,0.5c-0.3,0.2-0.5,0.5-0.7,0.9
	c-0.2,0.3-0.2,0.7-0.2,1.2v4.6h1v-4.2c0-0.4,0.1-0.8,0.2-1.1c0.1-0.3,0.3-0.6,0.5-0.7c0.2-0.2,0.4-0.3,0.7-0.4
	c0.3-0.1,0.6-0.1,0.9-0.1c0.3,0,0.6,0,0.9,0.1c0.3,0.1,0.5,0.2,0.7,0.4c0.2,0.2,0.4,0.5,0.5,0.8c0.1,0.3,0.2,0.7,0.2,1.1v4.1h1v-4.1
	c0-0.4,0.1-0.8,0.2-1.1c0.1-0.3,0.3-0.6,0.5-0.8c0.2-0.2,0.4-0.3,0.7-0.4c0.3-0.1,0.6-0.1,0.9-0.1c0.6,0,1.2,0.2,1.6,0.5
	c0.4,0.4,0.6,1,0.6,1.8v4.2H175.6z M189,130.6v-4.7c0-0.5-0.1-0.9-0.2-1.2c-0.2-0.3-0.4-0.6-0.6-0.9s-0.6-0.4-1-0.5
	s-0.8-0.2-1.2-0.2c-0.6,0-1.2,0.1-1.6,0.4c-0.5,0.3-0.9,0.6-1.2,1.2c-0.3-0.5-0.7-0.9-1.2-1.2c-0.5-0.3-1.1-0.4-1.7-0.4
	c-0.4,0-0.8,0.1-1.2,0.2c-0.4,0.1-0.7,0.3-1,0.5c-0.3,0.2-0.5,0.5-0.7,0.9c-0.2,0.3-0.2,0.7-0.2,1.2v4.6h1v-4.2
	c0-0.4,0.1-0.8,0.2-1.1c0.1-0.3,0.3-0.6,0.5-0.7c0.2-0.2,0.4-0.3,0.7-0.4c0.3-0.1,0.6-0.1,0.9-0.1c0.3,0,0.6,0,0.9,0.1
	c0.3,0.1,0.5,0.2,0.7,0.4c0.2,0.2,0.4,0.5,0.5,0.8c0.1,0.3,0.2,0.7,0.2,1.1v4.1h1v-4.1c0-0.4,0.1-0.8,0.2-1.1
	c0.1-0.3,0.3-0.6,0.5-0.8c0.2-0.2,0.4-0.3,0.7-0.4c0.3-0.1,0.6-0.1,0.9-0.1c0.6,0,1.2,0.2,1.6,0.5c0.4,0.4,0.6,1,0.6,1.8v4.2H189z
	 M196.1,127.4c0,0.8-0.2,1.4-0.6,1.9c-0.4,0.4-1,0.7-1.8,0.7s-1.4-0.2-1.8-0.7c-0.4-0.4-0.6-1.1-0.6-1.9v-3.9c0,0-0.1,0-0.2-0.1
	c-0.1,0-0.2,0-0.3,0c-0.2,0-0.3,0-0.4,0.1c-0.1,0.1-0.1,0.2-0.1,0.4v3.8c0,0.5,0.1,0.9,0.2,1.3c0.2,0.4,0.4,0.7,0.7,1
	c0.3,0.3,0.6,0.5,1.1,0.6s0.9,0.2,1.4,0.2s1-0.1,1.4-0.2c0.4-0.2,0.8-0.4,1.1-0.6c0.3-0.3,0.5-0.6,0.7-1c0.2-0.4,0.2-0.8,0.2-1.3
	v-4.2c0,0-0.1,0-0.2-0.1c-0.1,0-0.2,0-0.3,0c-0.2,0-0.3,0-0.4,0.1c-0.1,0.1-0.1,0.2-0.1,0.4V127.4z M205,130.6v-4.3
	c0-0.5-0.1-0.9-0.2-1.3c-0.2-0.4-0.4-0.7-0.7-1c-0.3-0.3-0.6-0.5-1.1-0.6c-0.4-0.2-0.9-0.2-1.4-0.2s-1,0.1-1.4,0.2s-0.8,0.4-1.1,0.6
	c-0.3,0.3-0.5,0.6-0.7,1c-0.2,0.4-0.2,0.8-0.2,1.3v4.3h1v-4c0-0.8,0.2-1.4,0.6-1.9c0.4-0.4,1-0.7,1.8-0.7c0.8,0,1.4,0.2,1.8,0.7
	c0.4,0.4,0.6,1.1,0.6,1.9v4H205z M207.5,120.8c0,0.2-0.1,0.4-0.2,0.5c-0.1,0.1-0.3,0.2-0.5,0.2c-0.2,0-0.4-0.1-0.5-0.2
	c-0.1-0.1-0.2-0.3-0.2-0.5s0.1-0.4,0.2-0.5c0.1-0.1,0.3-0.2,0.5-0.2c0.2,0,0.4,0.1,0.5,0.2C207.5,120.5,207.5,120.7,207.5,120.8
	 M206.3,123.9c0-0.1,0-0.3,0.1-0.4c0.1-0.1,0.2-0.1,0.4-0.1c0.1,0,0.2,0,0.3,0c0.1,0,0.1,0,0.2,0.1v7.1h-1V123.9z M212.7,124.3
	c0,0,0-0.1,0.1-0.2c0-0.1,0-0.1,0-0.2c0-0.1,0-0.2-0.1-0.3c-0.1-0.1-0.2-0.1-0.4-0.1h-2.6v-1.9c0,0-0.1,0-0.2-0.1
	c-0.1,0-0.2,0-0.3,0c-0.2,0-0.3,0-0.4,0.1c-0.1,0.1-0.1,0.2-0.1,0.4v6.7c0,0.3,0,0.6,0.1,0.9c0.1,0.3,0.2,0.5,0.4,0.7
	s0.4,0.3,0.7,0.4c0.3,0.1,0.6,0.2,1,0.2c0.3,0,0.5,0,0.8-0.1s0.4-0.1,0.6-0.2c0.2-0.1,0.3-0.1,0.4-0.2c0.1-0.1,0.2-0.1,0.3-0.2
	l-0.4-0.6c-0.1,0.1-0.3,0.2-0.6,0.3c-0.3,0.1-0.5,0.1-0.8,0.1c-0.5,0-0.8-0.1-1.1-0.3s-0.4-0.6-0.4-1.2v-4.2H212.7z M215.1,120.8
	c0,0.2-0.1,0.4-0.2,0.5c-0.1,0.1-0.3,0.2-0.5,0.2c-0.2,0-0.4-0.1-0.5-0.2c-0.1-0.1-0.2-0.3-0.2-0.5s0.1-0.4,0.2-0.5
	c0.1-0.1,0.3-0.2,0.5-0.2c0.2,0,0.4,0.1,0.5,0.2C215,120.5,215.1,120.7,215.1,120.8 M213.9,123.9c0-0.1,0-0.3,0.1-0.4
	c0.1-0.1,0.2-0.1,0.4-0.1c0.1,0,0.2,0,0.3,0c0.1,0,0.1,0,0.2,0.1v7.1h-1V123.9z M216.9,127.6c0.1,0.8,0.4,1.3,0.9,1.7
	c0.5,0.4,1.2,0.6,2,0.6c0.5,0,0.9-0.1,1.3-0.2c0.3-0.1,0.6-0.3,0.8-0.4l0.4,0.7c-0.1,0-0.2,0.1-0.4,0.2c-0.2,0.1-0.3,0.2-0.6,0.2
	s-0.5,0.1-0.8,0.2c-0.3,0.1-0.6,0.1-0.9,0.1c-0.5,0-1-0.1-1.5-0.2c-0.5-0.2-0.9-0.4-1.2-0.7c-0.4-0.3-0.6-0.7-0.8-1.2
	c-0.2-0.5-0.3-1-0.3-1.6c0-0.6,0.1-1.1,0.3-1.6c0.2-0.5,0.5-0.9,0.8-1.2c0.4-0.3,0.8-0.6,1.2-0.8c0.5-0.2,1-0.3,1.6-0.3
	c0.5,0,0.9,0.1,1.3,0.2c0.4,0.1,0.7,0.3,0.9,0.5c0.2,0.2,0.4,0.4,0.5,0.7c0.1,0.3,0.2,0.6,0.2,0.9s-0.1,0.6-0.2,0.9
	c-0.1,0.3-0.4,0.5-0.7,0.7c-0.3,0.2-0.7,0.4-1.3,0.5s-1.2,0.2-2,0.2c-0.3,0-0.6,0-0.9,0C217.5,127.7,217.2,127.7,216.9,127.6
	 M216.9,126.9c0.3,0,0.5,0,0.8,0c0.2,0,0.5,0,0.8,0c0.7,0,1.2,0,1.6-0.1c0.4-0.1,0.8-0.2,1-0.3c0.2-0.1,0.4-0.3,0.5-0.5
	c0.1-0.2,0.1-0.4,0.1-0.6c0-0.3-0.1-0.5-0.2-0.7c-0.1-0.2-0.3-0.3-0.5-0.4c-0.2-0.1-0.4-0.2-0.6-0.2c-0.2,0-0.5-0.1-0.7-0.1
	c-0.5,0-0.9,0.1-1.2,0.2c-0.4,0.2-0.6,0.4-0.9,0.6c-0.2,0.3-0.4,0.6-0.6,0.9C217,126.1,216.9,126.5,216.9,126.9 M229.5,123.7
	c-0.2-0.1-0.5-0.2-1-0.4s-1-0.2-1.6-0.2c-0.6,0-1.1,0.1-1.5,0.2s-0.7,0.3-1,0.5c-0.2,0.2-0.4,0.4-0.5,0.7c-0.1,0.2-0.2,0.5-0.2,0.8
	c0,0.6,0.2,1,0.6,1.4s1,0.6,1.8,0.6l1.5,0.2c0.7,0.1,1.1,0.2,1.4,0.4c0.2,0.2,0.4,0.5,0.4,0.9c0,0.2-0.1,0.4-0.2,0.6
	s-0.3,0.3-0.5,0.4c-0.2,0.1-0.4,0.2-0.7,0.2c-0.3,0-0.6,0.1-0.9,0.1c-0.4,0-0.8,0-1.2-0.1c-0.4-0.1-0.7-0.1-0.9-0.2
	c-0.3-0.1-0.5-0.2-0.7-0.3c-0.2-0.1-0.3-0.1-0.3-0.2l-0.4,0.7c0,0,0.2,0.1,0.3,0.2c0.2,0.1,0.4,0.2,0.7,0.3c0.3,0.1,0.7,0.2,1.1,0.3
	c0.4,0.1,0.9,0.1,1.3,0.1c0.5,0,1-0.1,1.4-0.2c0.4-0.1,0.7-0.3,1-0.5c0.3-0.2,0.5-0.4,0.6-0.7c0.1-0.3,0.2-0.6,0.2-0.9
	c0-0.3,0-0.5-0.1-0.7c-0.1-0.2-0.2-0.4-0.4-0.6c-0.2-0.2-0.5-0.3-0.8-0.4c-0.3-0.1-0.7-0.2-1.2-0.3l-1.7-0.2
	c-0.5-0.1-0.9-0.2-1.1-0.4c-0.3-0.2-0.4-0.5-0.4-0.8c0-0.4,0.2-0.8,0.6-0.9s0.9-0.3,1.6-0.3c0.4,0,0.8,0,1.1,0.1
	c0.3,0.1,0.6,0.1,0.8,0.2c0.2,0.1,0.4,0.2,0.5,0.3c0.1,0.1,0.2,0.2,0.3,0.2c0.1,0,0.2-0.1,0.2-0.2s0.1-0.2,0.1-0.3
	C229.9,124.1,229.8,123.9,229.5,123.7"/>
<path id="bubble" fill="#B79124" d="M41,135.6v-22.1c-6.5,0-6.8-0.1-6.9-0.1c-8.3-0.8-17.2-8.5-17.2-18.7V51
	c0-10.4,7.6-18.8,17-18.8h80c4.9,0,9.6,2.4,12.8,6.5c3.2-4.3,8-6.9,13.1-6.9h47.7l27.2-22.1v22.1c3.9,0,4.6,0,4.8,0.1h0
	c8.3,0.8,17.2,8.5,17.2,18.7v43.7c0,10.4-7.6,18.8-17,18.8h-80c-4.9,0-9.6-2.4-12.8-6.5c-3.2,4.3-8,6.9-13.1,6.9H68.1L41,135.6z
	 M33.8,34.5c-8,0-14.6,7.4-14.6,16.4v43.7c0,8.8,7.9,15.7,15,16.4c0.1,0,1.2,0,7.7,0.1l1.4,0v19.5l23.9-19.5h46.5
	c4.8,0,9.3-2.7,12-7.2l1-1.6l1,1.6c2.8,4.3,7.2,6.9,11.8,6.9h80c8,0,14.6-7.4,14.6-16.4V50.6c0-8.8-7.9-15.7-15-16.4
	c-0.2,0-1.1,0-5.5-0.1l-1.5,0V14.7l-23.9,19.5h-48.6c-4.8,0-9.3,2.7-12,7.2l-1,1.6l-1-1.6c-2.8-4.3-7.2-6.9-11.8-6.9H33.8z"/>
<path id="title" d="M34.2,79.3c0.2,0.2,0.7,0.4,1.3,0.7c0.6,0.3,1.4,0.5,2.2,0.8c0.9,0.3,1.9,0.5,3,0.7c1.1,0.2,2.4,0.3,3.7,0.3
	c1.7,0,3.2-0.2,4.3-0.7c1.1-0.5,1.7-1.2,1.7-2.3c0-0.9-0.4-1.7-1.1-2.1c-0.7-0.5-2-0.8-3.8-1l-3.9-0.5c-1.3-0.1-2.6-0.4-3.7-0.7
	c-1.1-0.4-2.1-0.8-2.9-1.4c-0.8-0.6-1.4-1.4-1.9-2.2c-0.5-0.9-0.7-2-0.7-3.2c0-1.1,0.2-2.1,0.6-3c0.4-1,1.1-1.8,2-2.5
	c0.9-0.7,2.1-1.3,3.6-1.7c1.5-0.4,3.2-0.6,5.3-0.6c3.5,0,6.2,0.4,8.1,1.2c1.9,0.8,2.9,1.8,2.9,3c0,0.4-0.1,0.8-0.2,1.1
	c-0.2,0.3-0.3,0.6-0.5,0.8c-0.2,0.2-0.4,0.4-0.6,0.6c-0.2,0.2-0.4,0.2-0.5,0.3c-0.1-0.1-0.4-0.3-0.9-0.6c-0.5-0.3-1.1-0.6-1.8-0.9
	c-0.8-0.3-1.7-0.5-2.8-0.8c-1.1-0.2-2.3-0.3-3.7-0.3c-3.9,0-5.8,1-5.8,3.1c0,0.9,0.4,1.5,1.1,2c0.7,0.5,1.8,0.8,3.2,0.9l5.1,0.7
	c2.8,0.4,5,1.1,6.5,2.3c1.5,1.2,2.3,2.9,2.3,5.1c0,2.5-1,4.5-3,6c-2,1.5-4.9,2.3-8.6,2.3c-1.8,0-3.5-0.1-4.9-0.4
	c-1.5-0.3-2.8-0.6-3.9-0.9c-1.1-0.4-2-0.7-2.6-1c-0.7-0.3-1.1-0.6-1.3-0.8L34.2,79.3z M59.1,75.4c0,1.6,0.3,3.1,0.8,4.4
	c0.6,1.3,1.3,2.3,2.3,3.2c1,0.9,2.1,1.5,3.5,2c1.4,0.5,2.9,0.7,4.5,0.7c1.7,0,3.3-0.3,4.7-0.9c1.4-0.6,2.5-1.4,3.1-2.3
	c0,1.7-0.2,3.2-0.6,4.4c-0.4,1.2-0.9,2.1-1.7,2.8c-0.7,0.7-1.6,1.2-2.6,1.5c-1,0.3-2.2,0.4-3.5,0.4c-1,0-2,0-2.8-0.2
	c-0.9-0.1-1.7-0.2-2.4-0.4c-0.7-0.2-1.3-0.3-1.8-0.5c-0.5-0.2-0.9-0.3-1.1-0.4c-0.2,0.7-0.5,1.4-0.7,2.1c-0.2,0.7-0.5,1.4-0.8,2.1
	c0.2,0.1,0.6,0.2,1.2,0.4c0.6,0.2,1.3,0.4,2.2,0.6c0.9,0.2,1.9,0.4,3,0.5c1.1,0.2,2.4,0.2,3.8,0.2c2,0,3.8-0.2,5.5-0.7
	c1.6-0.5,3.1-1.3,4.2-2.3c1.2-1.1,2.1-2.4,2.7-4.1c0.6-1.7,1-3.7,1-6.1V60.8c-0.2-0.1-0.5-0.2-1-0.3c-0.5-0.2-1.1-0.2-1.7-0.2
	c-0.9,0-1.7,0.2-2.2,0.7c-0.5,0.4-0.8,1.1-0.8,2v10.8c0,2.3-0.6,4.1-1.8,5.3c-1.2,1.2-2.8,1.8-4.8,1.8c-2.2,0-3.9-0.6-4.9-1.8
	c-1.1-1.2-1.6-2.8-1.6-4.7V60.8c-0.2-0.1-0.5-0.2-1-0.3c-0.5-0.2-1.1-0.2-1.7-0.2c-0.9,0-1.7,0.2-2.2,0.7c-0.5,0.4-0.8,1.1-0.8,2
	V75.4z M87.5,85.8h5.7V72c0-2.3,0.5-4,1.6-5.2c1.1-1.2,2.7-1.8,4.9-1.8c2.1,0,3.8,0.6,4.9,1.8c1.1,1.2,1.7,2.9,1.7,5.2v13.8h5.7
	V70.5c0-1.7-0.3-3.2-0.9-4.5c-0.6-1.3-1.5-2.5-2.5-3.4c-1.1-0.9-2.4-1.6-3.9-2.1c-1.5-0.5-3.2-0.7-4.9-0.7c-1.8,0-3.4,0.2-4.9,0.7
	c-1.5,0.5-2.8,1.2-3.9,2.1c-1.1,0.9-1.9,2-2.6,3.4c-0.6,1.3-0.9,2.8-0.9,4.5V85.8z M138.7,70.5c0-1.9-0.3-3.6-1-5
	c-0.7-1.4-1.6-2.5-2.7-3.3s-2.6-1.5-4.2-1.8c-1.6-0.4-3.4-0.6-5.4-0.6c-1.6,0-3,0.1-4.1,0.3c-1.1,0.2-1.9,0.5-2.6,0.8
	c-0.6,0.4-1.1,0.8-1.3,1.2c-0.3,0.5-0.4,0.9-0.4,1.4c0,0.7,0.2,1.2,0.5,1.7c0.4,0.5,0.6,0.8,0.8,1c0.4-0.3,1.1-0.7,2.3-1.1
	c1.2-0.4,2.7-0.7,4.6-0.7c1.1,0,2.2,0.1,3.1,0.3c0.9,0.2,1.7,0.5,2.4,0.9c0.7,0.4,1.2,1,1.6,1.8c0.4,0.8,0.6,1.7,0.6,2.9
	c-0.6-0.1-1.4-0.1-2.6-0.2s-2.3-0.1-3.6-0.1c-2.2,0-4.1,0.2-5.6,0.5c-1.5,0.4-2.8,0.9-3.8,1.6c-1,0.7-1.6,1.6-2.1,2.6
	c-0.4,1-0.6,2.2-0.6,3.6c0,1,0.2,2.1,0.5,3c0.4,1,1,1.9,2,2.6c1,0.8,2.3,1.4,3.9,1.8c1.7,0.5,3.8,0.7,6.4,0.7c1.3,0,2.6,0,3.8-0.1
	c1.2-0.1,2.3-0.1,3.3-0.2c1-0.1,1.8-0.2,2.5-0.3c0.7-0.1,1.2-0.2,1.6-0.2V70.5z M133,81.8c-0.3,0.1-0.9,0.2-1.8,0.3
	c-0.9,0.1-2.1,0.2-3.7,0.2c-1.4,0-2.5-0.1-3.4-0.3c-0.9-0.2-1.7-0.5-2.2-0.8c-0.5-0.4-0.9-0.8-1.1-1.3c-0.2-0.5-0.3-1.1-0.3-1.7
	c0-1.5,0.5-2.6,1.6-3.2c1-0.7,2.7-1,5-1c1.8,0,3.2,0.1,4.2,0.2c0.9,0.1,1.6,0.2,1.9,0.3V81.8z M142.5,95.8h5.7V82.6
	c0.8,1.1,2,2,3.5,2.7c1.5,0.7,3.2,1.1,5.1,1.1c1.8,0,3.5-0.3,5.1-1c1.6-0.7,2.9-1.6,4.1-2.7c1.2-1.2,2.1-2.6,2.7-4.2
	c0.7-1.6,1-3.4,1-5.4c0-1.9-0.3-3.7-1-5.3c-0.7-1.6-1.6-3.1-2.8-4.2c-1.2-1.2-2.6-2.1-4.2-2.8c-1.6-0.7-3.4-1-5.3-1
	c-2.1,0-4,0.3-5.7,1c-1.7,0.6-3.2,1.6-4.4,2.8c-1.2,1.2-2.1,2.7-2.8,4.5c-0.7,1.8-1,3.9-1,6.2V95.8z M156,81.3
	c-1.2,0-2.2-0.2-3.2-0.6c-1-0.4-1.8-1-2.4-1.7s-1.2-1.6-1.6-2.6c-0.4-1-0.6-2.1-0.6-3.3c0-1.2,0.2-2.3,0.6-3.3
	c0.4-1,0.9-1.8,1.6-2.5c0.7-0.7,1.5-1.3,2.5-1.7c1-0.4,2-0.6,3.1-0.6c1.1,0,2.2,0.2,3.1,0.6c1,0.4,1.8,1,2.5,1.7
	c0.7,0.7,1.2,1.6,1.6,2.6c0.4,1,0.6,2.1,0.6,3.2c0,1.2-0.2,2.3-0.6,3.3c-0.4,1-0.9,1.9-1.6,2.6c-0.7,0.7-1.5,1.3-2.5,1.7
	C158.2,81.1,157.1,81.3,156,81.3 M170.9,83.4c0.2,0.2,0.6,0.4,1.3,0.8c0.7,0.3,1.6,0.7,2.6,1c1.1,0.4,2.4,0.7,3.9,0.9
	c1.5,0.3,3.1,0.4,4.9,0.4c3.8,0,6.6-0.8,8.6-2.3c2-1.5,3-3.5,3-6c0-2.2-0.8-4-2.3-5.1c-1.5-1.2-3.7-1.9-6.5-2.3l-5.1-0.7
	c-1.4-0.2-2.4-0.5-3.2-0.9c-0.7-0.5-1.1-1.1-1.1-2c0-2,1.9-3.1,5.8-3.1c1.4,0,2.7,0.1,3.7,0.3c1.1,0.2,2,0.5,2.8,0.8
	c0.8,0.3,1.4,0.6,1.8,0.9c0.5,0.3,0.7,0.5,0.9,0.6c0.1,0,0.3-0.1,0.5-0.3s0.4-0.3,0.6-0.6c0.2-0.2,0.4-0.5,0.5-0.8
	c0.2-0.3,0.2-0.7,0.2-1.1c0-1.2-1-2.2-2.9-3c-1.9-0.8-4.6-1.2-8.1-1.2c-2.1,0-3.9,0.2-5.3,0.6c-1.5,0.4-2.6,1-3.6,1.7
	c-0.9,0.7-1.6,1.6-2,2.5c-0.4,1-0.6,2-0.6,3c0,1.2,0.2,2.3,0.7,3.2c0.5,0.9,1.1,1.6,1.9,2.2c0.8,0.6,1.8,1.1,2.9,1.4
	c1.1,0.4,2.4,0.6,3.7,0.7l3.9,0.5c1.8,0.2,3.1,0.5,3.8,1c0.7,0.5,1.1,1.2,1.1,2.1c0,1.1-0.6,1.9-1.7,2.3s-2.5,0.7-4.3,0.7
	c-1.3,0-2.6-0.1-3.7-0.3c-1.1-0.2-2.2-0.4-3-0.7c-0.9-0.3-1.6-0.6-2.2-0.8c-0.6-0.3-1-0.5-1.3-0.7L170.9,83.4z M218.3,79.9
	c-0.2,0.1-0.5,0.3-0.9,0.5c-0.4,0.2-0.9,0.4-1.5,0.6c-0.6,0.2-1.3,0.4-2,0.5c-0.7,0.1-1.5,0.2-2.4,0.2c-2.6,0-4.6-0.5-6-1.6
	c-1.4-1.1-2.2-2.4-2.5-4.2c0.7,0,1.3,0.1,1.9,0.1c0.6,0,1.2,0,1.9,0c2.9,0,5.3-0.2,7.1-0.6c1.9-0.4,3.4-0.9,4.5-1.6s1.9-1.5,2.3-2.5
	c0.4-1,0.7-2,0.7-3.2c0-1.1-0.2-2.2-0.7-3.2c-0.5-1-1.2-1.9-2.1-2.6c-0.9-0.8-2.1-1.4-3.4-1.8c-1.3-0.5-2.9-0.7-4.6-0.7
	c-2,0-3.8,0.3-5.5,1c-1.7,0.7-3.1,1.6-4.3,2.8c-1.2,1.2-2.2,2.6-2.9,4.3c-0.7,1.7-1,3.5-1,5.5c0,2.1,0.4,4,1.1,5.6
	c0.7,1.6,1.7,3,2.9,4.1c1.2,1.1,2.7,2,4.3,2.5c1.6,0.6,3.4,0.9,5.3,0.9c1.3,0,2.6-0.1,3.7-0.3c1.1-0.2,2.1-0.4,3-0.7
	c0.9-0.3,1.6-0.6,2.1-0.9c0.6-0.3,1-0.5,1.3-0.7L218.3,79.9z M202.8,72c0-1,0.2-1.9,0.6-2.9c0.4-0.9,0.8-1.8,1.5-2.5
	c0.6-0.7,1.4-1.3,2.4-1.7c0.9-0.4,2-0.7,3.3-0.7c1.5,0,2.8,0.3,3.8,1c1,0.6,1.5,1.6,1.5,2.9c0,0.5-0.1,1-0.3,1.5
	c-0.2,0.5-0.6,0.9-1.3,1.3c-0.6,0.4-1.5,0.7-2.7,0.9c-1.1,0.2-2.6,0.4-4.5,0.4H205C204.3,72,203.5,72,202.8,72"/>
</svg>
