<?xml version="1.0" encoding="utf-8"?>
<!-- Generator: Adobe Illustrator 21.1.0, SVG Export Plug-In . SVG Version: 6.00 Build 0)  -->
<svg version="1.1" id="Layer_1" xmlns="http://www.w3.org/2000/svg" xmlns:xlink="http://www.w3.org/1999/xlink" x="0px" y="0px"
	 viewBox="0 0 219.8 21" enable-background="new 0 0 219.8 21" xml:space="preserve">
<g>
	<path fill="#FFFFFF" d="M20.2,1.2v19.4h-2.5v-3.3c-1,1.3-2.2,2.2-3.5,2.9c-1.3,0.6-2.7,1-4.3,1c-2.7,0-5.1-1-7-3
		C1,16.1,0,13.6,0,10.8C0,8,1,5.6,2.9,3.6s4.3-3,7.1-3c1.6,0,3,0.3,4.3,1c1.3,0.7,2.4,1.7,3.4,3V1.2H20.2z M10.2,3.1
		c-1.4,0-2.7,0.3-3.8,1C5.2,4.8,4.3,5.7,3.6,7c-0.7,1.2-1,2.5-1,3.9c0,1.4,0.3,2.7,1,3.9C4.3,16,5.2,17,6.4,17.7s2.4,1,3.8,1
		c1.4,0,2.7-0.3,3.9-1c1.2-0.7,2.2-1.6,2.8-2.8c0.7-1.2,1-2.5,1-4c0-2.2-0.7-4.1-2.2-5.6C14.2,3.8,12.4,3.1,10.2,3.1"/>
	<polygon fill="#FFFFFF" points="23.6,1.2 26.6,1.2 31.7,8.2 36.8,1.2 39.8,1.2 33.2,10.3 40.7,20.5 37.6,20.5 31.7,12.4 25.9,20.5 
		22.9,20.5 30.2,10.3 	"/>
	<path fill="#CEA428" d="M93.6,0.5h4c2.2,0,3.7,0.1,4.5,0.3c1.2,0.3,2.2,0.9,2.9,1.8c0.7,0.9,1.1,2,1.1,3.3c0,1.1-0.3,2-0.8,2.9
		c-0.5,0.8-1.2,1.5-2.2,1.9c-1,0.4-2.3,0.6-3.9,0.6l7.2,9.3h-2.5l-7.2-9.3h-1.1v9.3h-2V0.5z M95.6,2.5v6.8l3.5,0
		c1.3,0,2.3-0.1,3-0.4c0.6-0.3,1.1-0.7,1.5-1.2c0.4-0.6,0.5-1.2,0.5-1.9c0-0.7-0.2-1.3-0.5-1.8c-0.4-0.6-0.8-0.9-1.4-1.2
		c-0.6-0.2-1.6-0.4-2.9-0.4H95.6z"/>
	<polygon fill="#CEA428" points="110.4,0.5 121.9,0.5 121.9,2.5 112.4,2.5 112.4,8.7 121.8,8.7 121.8,10.7 112.4,10.7 112.4,18.6 
		121.8,18.6 121.8,20.5 110.4,20.5 	"/>
	<path fill="#CEA428" d="M144.7,3.9l-1.6,1.5c-1.1-1.1-2.3-1.9-3.7-2.5c-1.3-0.6-2.6-0.9-3.9-0.9c-1.6,0-3.1,0.4-4.5,1.2
		c-1.4,0.8-2.5,1.8-3.3,3.1c-0.8,1.3-1.2,2.7-1.2,4.2c0,1.5,0.4,2.9,1.2,4.3c0.8,1.4,1.9,2.4,3.4,3.2c1.4,0.8,3,1.2,4.7,1.2
		c2.1,0,3.8-0.6,5.2-1.7c1.4-1.2,2.3-2.7,2.5-4.5h-6.4v-1.9h8.6c0,3.1-0.9,5.6-2.8,7.4c-1.8,1.8-4.3,2.7-7.3,2.7
		c-3.7,0-6.6-1.3-8.8-3.8c-1.7-1.9-2.5-4.2-2.5-6.7c0-1.9,0.5-3.7,1.4-5.3s2.3-2.9,3.9-3.8c1.7-0.9,3.5-1.4,5.6-1.4
		c1.7,0,3.3,0.3,4.8,0.9C141.8,1.5,143.2,2.5,144.7,3.9"/>
	<rect x="149.4" y="0.5" fill="#CEA428" width="2" height="20"/>
	<path fill="#CEA428" d="M153.9,16.8l1.7-1c1.2,2.2,2.6,3.3,4.2,3.3c0.7,0,1.3-0.2,1.9-0.5c0.6-0.3,1-0.7,1.3-1.3
		c0.3-0.5,0.5-1.1,0.5-1.7c0-0.7-0.2-1.3-0.7-2c-0.6-0.9-1.8-2-3.4-3.2c-1.7-1.3-2.7-2.2-3.1-2.7c-0.7-0.9-1.1-2-1.1-3.1
		c0-0.9,0.2-1.7,0.6-2.4c0.4-0.7,1-1.3,1.8-1.7c0.8-0.4,1.6-0.6,2.5-0.6c0.9,0,1.8,0.2,2.6,0.7c0.8,0.5,1.7,1.3,2.6,2.6l-1.6,1.2
		c-0.8-1-1.4-1.7-1.9-2c-0.5-0.3-1.1-0.5-1.7-0.5c-0.8,0-1.5,0.2-2,0.7c-0.5,0.5-0.8,1.1-0.8,1.8c0,0.4,0.1,0.9,0.3,1.3
		c0.2,0.4,0.5,0.9,1,1.3c0.3,0.3,1.1,0.9,2.6,2c1.7,1.3,2.9,2.4,3.6,3.4c0.6,1,1,2,1,3c0,1.5-0.6,2.7-1.7,3.8
		c-1.1,1.1-2.4,1.6-4,1.6c-1.2,0-2.3-0.3-3.3-1C155.7,19.4,154.7,18.3,153.9,16.8"/>
	<polygon fill="#CEA428" points="167.9,2.5 167.9,0.5 178.9,0.5 178.9,2.5 174.4,2.5 174.4,20.5 172.3,20.5 172.3,2.5 	"/>
	<path fill="#CEA428" d="M181.9,0.5h4c2.2,0,3.7,0.1,4.5,0.3c1.2,0.3,2.2,0.9,2.9,1.8c0.7,0.9,1.1,2,1.1,3.3c0,1.1-0.3,2-0.8,2.9
		c-0.5,0.8-1.2,1.5-2.2,1.9c-1,0.4-2.3,0.6-3.9,0.6l7.2,9.3h-2.5l-7.2-9.3h-1.1v9.3h-2V0.5z M183.9,2.5v6.8l3.5,0
		c1.3,0,2.3-0.1,3-0.4c0.6-0.3,1.1-0.7,1.5-1.2c0.4-0.6,0.5-1.2,0.5-1.9c0-0.7-0.2-1.3-0.5-1.8c-0.4-0.6-0.8-0.9-1.4-1.2
		c-0.6-0.2-1.6-0.4-2.9-0.4H183.9z"/>
	<polygon fill="#CEA428" points="196.5,0.5 198.8,0.5 204,8.8 209,0.5 211.3,0.5 205,11 205,20.5 203,20.5 203,11 	"/>
	<path fill-rule="evenodd" clip-rule="evenodd" fill="#CEA428" d="M62.6,11.3c0-0.1,0-0.3,0-0.4c0-0.1,0-0.3,0-0.4
		c-3.3-0.2-5-0.4-5.3-0.8c-0.2-0.2-0.1-0.4,0.7-0.8C58,8.8,58.1,8.7,58,8.6c-0.1-0.1-0.1-0.1-0.2-0.1C57,8.8,56.5,9,56.3,8.7
		c-0.3-0.4,0.3-1.4,1.3-2.6c1-1.2,1.8-1.9,1.8-2c0.1-0.1,0.1-0.2,0-0.3c-0.1-0.1-0.2-0.1-0.3,0c-0.1,0.1-0.8,0.8-2,1.8
		c-1.2,1-2.2,1.6-2.6,1.3c-0.3-0.2-0.1-0.7,0.2-1.5c0-0.1,0-0.2-0.1-0.2c-0.1,0-0.2,0-0.2,0.1c-0.4,0.9-0.6,0.9-0.8,0.7
		c-0.6-0.6-0.9-3.4-1-5.5c-0.1,0-0.2,0-0.2,0c-0.1,0-0.2,0-0.3,0c-0.1,2.1-0.4,4.9-1,5.5c-0.2,0.2-0.4,0.1-0.8-0.7
		c-0.1-0.1-0.2-0.1-0.2-0.1c-0.1,0-0.1,0.1-0.1,0.2c0.3,0.8,0.5,1.3,0.2,1.5c-0.4,0.3-1.4-0.3-2.6-1.3c-1.2-1-1.9-1.8-2-1.8
		c-0.1-0.1-0.2-0.1-0.3,0c-0.1,0.1-0.1,0.2,0,0.3c0.1,0.1,0.8,0.8,1.8,2c1,1.2,1.6,2.2,1.3,2.6c-0.2,0.3-0.7,0.1-1.5-0.2
		c-0.1,0-0.2,0-0.2,0.1c-0.1,0.1,0,0.2,0.1,0.2c0.9,0.4,0.9,0.6,0.7,0.8c-0.6,0.6-3.2,0.9-5.3,1c0,0.1,0,0.2,0,0.2
		c0,0.1,0,0.2,0,0.3c2.1,0.1,4.7,0.4,5.3,1c0.2,0.2,0.1,0.4-0.7,0.8c-0.1,0.1-0.1,0.2-0.1,0.2c0,0.1,0.1,0.1,0.2,0.1
		c0.8-0.3,1.3-0.5,1.5-0.2c0.3,0.4-0.3,1.4-1.3,2.6c-1,1.2-1.8,1.9-1.8,2c-0.1,0.1-0.1,0.2,0,0.3c0.1,0.1,0.2,0.1,0.3,0
		c0.1-0.1,0.8-0.8,2-1.8c1.2-1,2.2-1.6,2.6-1.3c0.3,0.2,0.1,0.7-0.2,1.5c0,0.1,0,0.2,0.1,0.2c0.1,0.1,0.2,0,0.2-0.1
		c0.4-0.9,0.6-0.9,0.8-0.7c0.6,0.6,0.9,3.3,1,5.3c0.1,0,0.2,0,0.3,0c0.1,0,0.2,0,0.3,0c0.1-2.1,0.4-4.7,1-5.3
		c0.2-0.2,0.4-0.1,0.8,0.7c0.1,0.1,0.2,0.1,0.2,0.1s0.1-0.1,0.1-0.2c-0.3-0.8-0.5-1.3-0.2-1.5c0.4-0.3,1.4,0.3,2.6,1.3
		c1.2,1,1.9,1.8,2,1.8c0.1,0.1,0.2,0.1,0.3,0c0.1-0.1,0.1-0.2,0-0.3c-0.1-0.1-0.8-0.8-1.8-2c-1-1.2-1.6-2.2-1.3-2.6
		c0.2-0.3,0.7-0.1,1.5,0.2c0.1,0,0.2,0,0.2-0.1c0-0.1,0-0.2-0.1-0.2c-0.9-0.4-0.9-0.6-0.7-0.8C57.6,11.8,59.2,11.5,62.6,11.3
		 M52.5,12.6c-0.9,0-1.7-0.8-1.7-1.7c0-0.9,0.8-1.7,1.7-1.7c0.9,0,1.7,0.8,1.7,1.7C54.2,11.9,53.4,12.6,52.5,12.6"/>
	<path fill="#FFFFFF" d="M47.7,9.7c0.2-0.2,0.1-0.4-0.7-0.8c-0.1-0.1-0.1-0.2-0.1-0.2c0-0.1,0.1-0.1,0.2-0.1
		c0.8,0.3,1.3,0.5,1.5,0.2c0.3-0.4-0.3-1.3-1.3-2.6c-1-1.2-1.8-1.9-1.8-2c-0.1-0.1-0.1-0.2,0-0.3c0.1-0.1,0.2-0.1,0.3,0
		c0.1,0.1,0.8,0.8,2,1.8c1.2,1,2.2,1.6,2.6,1.3c0.3-0.2,0.1-0.7-0.2-1.5c0-0.1,0-0.2,0.1-0.2c0.1,0,0.2,0,0.2,0.1
		c0.4,0.9,0.6,0.9,0.8,0.7c0.6-0.6,0.9-3.4,1-5.5c-2.9,0.1-5.3,1.1-7.2,3.3c-1.7,1.9-2.6,4.2-2.7,6.7C44.4,10.5,47.1,10.3,47.7,9.7"
		/>
	<path fill="#FFFFFF" d="M54.2,10.9c0-0.9-0.8-1.7-1.7-1.7c-0.9,0-1.7,0.8-1.7,1.7c0,0.9,0.8,1.7,1.7,1.7
		C53.4,12.6,54.2,11.9,54.2,10.9"/>
	<path fill="#FFFFFF" d="M53.7,6.2c0.2,0.2,0.4,0.1,0.8-0.7c0.1-0.1,0.2-0.1,0.2-0.1c0.1,0.1,0.1,0.1,0.1,0.2
		c-0.3,0.8-0.5,1.3-0.2,1.5C55,7.3,56,6.8,57.2,5.7c1.2-1,1.9-1.8,2-1.8c0.1-0.1,0.2-0.1,0.3,0c0.1,0.1,0.1,0.2,0,0.3
		c-0.1,0.1-0.8,0.8-1.8,2c-1,1.2-1.6,2.2-1.3,2.6C56.5,9,57,8.8,57.8,8.5c0.1,0,0.2,0,0.2,0.1c0,0.1,0,0.2-0.1,0.2
		c-0.9,0.4-0.9,0.6-0.7,0.8c0.4,0.4,2,0.7,5.3,0.8c-0.1-2.5-1-4.7-2.7-6.6c-1.9-2.1-4.3-3.2-7.2-3.2C52.8,2.8,53.1,5.5,53.7,6.2"/>
	<path fill="#FFFFFF" d="M51.2,15.7c-0.2-0.2-0.4-0.1-0.8,0.7c-0.1,0.1-0.2,0.1-0.2,0.1c-0.1-0.1-0.1-0.1-0.1-0.2
		c0.3-0.8,0.5-1.3,0.2-1.5c-0.4-0.3-1.4,0.3-2.6,1.3c-1.2,1-1.9,1.8-2,1.8c-0.1,0.1-0.2,0.1-0.3,0c-0.1-0.1-0.1-0.2,0-0.3
		c0.1-0.1,0.8-0.8,1.8-2c1-1.2,1.6-2.2,1.3-2.6c-0.2-0.3-0.7-0.1-1.5,0.2c-0.1,0-0.2,0-0.2-0.1c-0.1-0.1,0-0.2,0.1-0.2
		c0.9-0.4,0.9-0.6,0.7-0.8c-0.6-0.6-3.2-0.9-5.3-1c0.1,2.6,1,4.8,2.8,6.8c1.8,2,4.2,3,7,3C52.1,19,51.8,16.3,51.2,15.7"/>
	<path fill="#FFFFFF" d="M57.2,12.2c-0.2,0.2-0.1,0.4,0.7,0.8c0.1,0.1,0.1,0.2,0.1,0.2c-0.1,0.1-0.1,0.1-0.2,0.1
		c-0.8-0.3-1.3-0.4-1.5-0.2c-0.3,0.4,0.3,1.4,1.3,2.6c1,1.2,1.8,1.9,1.8,2c0.1,0.1,0.1,0.2,0,0.3c-0.1,0.1-0.2,0.1-0.3,0
		c-0.1-0.1-0.8-0.8-2-1.8c-1.2-1-2.2-1.6-2.6-1.3c-0.3,0.2-0.1,0.7,0.2,1.5c0,0.1,0,0.2-0.1,0.2c-0.1,0.1-0.2,0-0.2-0.1
		c-0.4-0.9-0.6-0.9-0.8-0.7c-0.6,0.6-0.9,3.3-1,5.3c2.8-0.1,5.2-1.1,7-3c1.8-1.9,2.7-4.1,2.8-6.7C59.2,11.5,57.6,11.8,57.2,12.2"/>
	<path fill-rule="evenodd" clip-rule="evenodd" fill="#CEA428" d="M84.1,10.8c-0.7,0-1.6,0-2.5,0c0,0.1,0,0.2,0,0.3
		c0.9,0,1.8,0,2.5,0V10.8z"/>
	<path fill-rule="evenodd" clip-rule="evenodd" fill="#CEA428" d="M69.7,10.7c-0.9,0-1.8,0-2.6,0v0.5c0.8,0,1.6,0,2.5,0
		C69.7,11,69.7,10.8,69.7,10.7"/>
	<path fill="#FFFFFF" d="M69.7,10.7c0.1-1.1,0.2-2,0.3-2.5c0.4-1.5,1.2-2.7,2.4-3.7c1.2-1,2.5-1.5,4.1-1.5c1.3,0,2.4,0.3,3.2,1
		c0.8,0.6,1.4,1.6,1.7,2.9c0.2,0.7,0.3,2,0.3,3.9c0.9,0,1.8,0,2.5,0v-0.2c0-2.6-0.3-4.6-0.8-5.8c-0.5-1.2-1.4-2.2-2.5-3
		c-1.1-0.7-2.4-1.1-3.9-1.1c-1.4,0-2.7,0.3-4,1c-1.2,0.7-2.3,1.7-3.3,3V1.2h-2.5v9.5C68,10.7,68.8,10.7,69.7,10.7"/>
	<path fill="#FFFFFF" d="M67.2,11.2v9.3h2.5v-7.1c0-0.8,0-1.6,0-2.3C68.8,11.2,68,11.2,67.2,11.2"/>
	<path fill="#FFFFFF" d="M81.6,11.1c0,0.1,0,0.1,0,0.2v9.2h2.5v-9.4C83.4,11.1,82.5,11.1,81.6,11.1"/>
	<path fill="#FFFFFF" d="M219.8,3.3c0,1.6-1.2,2.8-2.8,2.8c-1.6,0-2.8-1.2-2.8-2.8c0-1.5,1.3-2.8,2.8-2.8
		C218.5,0.5,219.8,1.8,219.8,3.3 M214.8,3.3c0,1.2,0.9,2.2,2.2,2.2c1.2,0,2.1-1,2.1-2.2c0-1.2-0.9-2.2-2.1-2.2
		C215.7,1.1,214.8,2.1,214.8,3.3 M216.5,4.7h-0.6V2c0.3-0.1,0.6-0.1,1.1-0.1c0.5,0,0.8,0.1,1,0.2c0.2,0.1,0.3,0.3,0.3,0.6
		c0,0.3-0.2,0.5-0.6,0.6v0c0.3,0.1,0.4,0.3,0.5,0.7c0.1,0.4,0.1,0.6,0.2,0.7h-0.7c-0.1-0.1-0.1-0.4-0.2-0.7c0-0.3-0.2-0.4-0.6-0.4
		h-0.3V4.7z M216.5,3.2h0.3c0.4,0,0.6-0.1,0.6-0.4c0-0.3-0.2-0.4-0.6-0.4c-0.2,0-0.3,0-0.4,0V3.2z"/>
</g>
</svg>
