<?xml version="1.0" encoding="utf-8"?>
<!-- Generator: Adobe Illustrator 21.1.0, SVG Export Plug-In . SVG Version: 6.00 Build 0)  -->
<svg version="1.1" id="neurotracker_logo" xmlns="http://www.w3.org/2000/svg" xmlns:xlink="http://www.w3.org/1999/xlink" x="0px"
	 y="0px" viewBox="0 0 401.9 93.2" enable-background="new 0 0 401.9 93.2" xml:space="preserve">
<path id="neuro" d="M50.4,24.5c-6.3,1.1-6.9,3.6-6.9,9.4v36.8h-6L11,33.1v25.4c0,7.2,0.8,8.6,7.7,10v2.2H0v-2.2c6.3-1,7.5-3,7.5-9.1
	V29.1c-1.9-2.3-4.6-4-7.5-4.6v-2.2l16.8,0L40.1,56V33.9c0-5.6-0.5-8.8-7.1-9.4v-2.2h17.4V24.5z M67.1,67.6c3.8,0,7.2-2.2,9.7-4.8
	l1.6,1.4c-4.1,4.8-8.5,7.4-15,7.4c-9.1,0-17.1-6.1-17.1-15.8c0-4.3,1.5-8.6,4.3-12c3.1-3.8,7.3-5.7,12.2-5.7
	c9.2,0,15.5,7.3,15.3,16.6H55.9C55.9,60.8,60.2,67.6,67.1,67.6 M63.2,40.9c-5.7,0-7.4,6.6-7.5,10.9h13.9
	C69.7,45.3,68.4,40.9,63.2,40.9 M174,46.3c1.4,2.5,2,5.6,2,9.1c0,5.7-1.8,10-5.3,13c-3.6,3-7.6,4.5-12.1,4.5c-3.2,0-6.1-0.8-8.8-2.3
	c-2.7-1.6-4.7-3.6-6.1-6.3c-1.4-2.6-2.1-5.6-2.1-8.9c0-3.2,0.7-6,2-8.6c-0.2,0-0.5,0.1-0.7,0.1c-2.1,0-4.2-1.7-5.7-1.7
	c-1.5,0-4,3.1-4.8,4.4v14.7c0.2,3.6,1.9,4.3,4.7,4.3v2h-35v-4.6c-3.5,2.8-7.3,5.4-12,5.4c-6.3,0-9.1-4.3-9.1-9.8V49.8
	c0-3.5-0.9-5.9-4.7-6.3v-2l14.2-4v24.2c0,2.6,1.9,4.3,4.6,4.3c2.6,0,5.1-1.9,6.9-3.5V49.8c0-3.5-0.9-5.9-4.7-6.3v-2l14.2-4v25.1
	c0,3.5,0.9,5.9,4.8,6.2v0h1.9v0c3,0,4.6-0.4,4.6-5.4V50c0-3.5-0.9-5.9-4.7-6.3v-2l14.2-4v7.6c2.3-2.9,6.1-7.8,10.2-7.8
	c2.6,0,4.4,2.5,4.5,4.9c3.1-3,7-4.5,11.6-4.5c3.3,0,6.4,0.8,9.2,2.3C170.6,41.7,172.7,43.8,174,46.3 M164.1,66.6
	c1.4-2.1,2.1-5.8,2.1-11.1c0-5.4-0.7-9.1-2-11.3c-1.4-2.1-3.2-3.2-5.5-3.2c-2.2,0-4,1.1-5.3,3.2c-1.3,2.1-2,5.8-2,11.1
	c0,5.5,0.7,9.3,1.9,11.4c1.3,2.1,3.1,3.1,5.3,3.1C160.9,69.8,162.7,68.8,164.1,66.6"/>
<path id="tracker" fill="#006D48" d="M188.6,31.2h7.8v6.4h0.2c2.4-4.3,6.8-6.6,12-6.6c1.2,0,2.4,0.1,3.5,0.4l0,7.8
	c-1.3-0.3-2.6-0.6-3.8-0.6c-7.7,0-11.8,4.2-11.8,13.2v20.7h-7.8V31.2z M213.8,41.3c2.8-2.4,6.9-4.8,12.9-4.8c6.7,0,9.8,4.4,9.8,8.7
	v1.7h-5.7c-12.5,0-22.7,3.7-22.7,14.3c0,8,6.6,12.4,14.3,12.4c4,0,10.1-2.2,14-5.3c0.1-0.1,0.4,2.8,0.9,4.2h7
	c-0.3-2.2-0.4-4.6-0.4-7.5V43.9c0-7.1-5.6-14-17.7-14c-5.3,0-9.1,1.6-12.3,4.3L213.8,41.3z M236.5,52.6v2.6c0,5.6-3,12-11.7,12
	c-5.4,0-8.9-2-8.9-6.7c0-6.6,9.1-7.9,16.4-7.9H236.5z M283.5,36.8c-4.1-4.4-9.8-6.5-15.8-6.5c-12.9,0-21.6,9.1-21.6,21.8
	c0,12.7,8.9,21.5,21.6,21.5c6,0,11.6-1.8,15.7-6.4l-5.6-5.6c-2.6,3-5.7,4.6-10,4.6c-8.1,0-13.3-6.3-13.3-14
	c0-7.7,4.4-14.6,12.9-14.6c4.4,0,7.4,1.6,10.3,4.6L283.5,36.8z M284.8,72.5h7.8V51.1l19.1,21.4h11.1L302.1,50l19.2-18.7h-10.9
	l-17.8,17.8V6.7h-7.8V72.5z M358.3,54.7V52c0-10.6-5.6-21.8-20.1-21.8c-12.4,0-21.3,9.3-21.3,21.7c0,12.3,8.2,21.7,21.2,21.7
	c7.9,0,13.9-2.8,18.3-8.4l-5.9-4.5c-3,3.7-6.5,6.2-11.3,6.2c-7.2,0-13.9-4.8-13.9-12H358.3z M326.2,48.5c0-5.5,5-12,12.8-12
	c7.9,0,11.7,5.1,11.9,12H326.2z M401.9,84.2l-17-9v5.4H184.9c-2.5,0-3.3-0.9-3.5-1.2c-1.2-1.4-1.2-3.9-1.1-4.7l0-0.2V7.2h16.2V0
	h-39.4v7.2h16V74c-0.1,1.4-0.4,6.4,2.8,10.1c1.5,1.7,4.2,3.7,9,3.7H385v5.4L401.9,84.2z M361.2,72.5h7.8V51.8
	c0-9,4.2-13.2,11.8-13.2c1.2,0,2.5,0.3,3.8,0.6l0-7.8c-1.1-0.3-2.3-0.4-3.5-0.4c-5.1,0-9.6,2.3-12,6.6H369v-6.4h-7.8V72.5z
	 M390.9,31.2v0.7h1.9v4.9h0.8v-4.9h1.9v-0.7H390.9z M396.1,36.7h0.7v-3.3c0-0.1,0-0.3,0-0.6c0-0.3,0-0.5,0-0.6V32l1.6,4.7h0.7
	l1.6-4.7c0,0.3,0,0.6,0,0.8c0,0.3,0,0.4,0,0.6v3.3h0.7v-5.5h-1.1l-1.6,4.7l-1.6-4.7h-1.1V36.7z"/>
</svg>
